<?xml version="1.0" encoding="UTF-8"?>
<svg version="1.1" xmlns="http://www.w3.org/2000/svg" width="500" height="500">
<path d="M0 0 C1.74216797 0.57814453 1.74216797 0.57814453 3.51953125 1.16796875 C29.90795431 10.66042827 51.68921099 30.31152754 63.9921875 55.4453125 C70.046885 68.65503787 73.04963403 82.56056865 74 97 C74.05929688 97.88429688 74.11859375 98.76859375 74.1796875 99.6796875 C75.078479 129.33980698 62.75730517 157.03788552 42.6640625 178.4375 C38.12615343 182.8024096 33.1743906 186.43028244 28 190 C27.17371094 190.60457031 26.34742188 191.20914063 25.49609375 191.83203125 C3.49949943 207.08162637 -25.50083015 211.83774743 -51.62597656 207.46142578 C-80.37169974 201.87427885 -104.63978781 185.98894535 -121.390625 161.98828125 C-133.46091409 143.98446425 -139.43105735 123.38671564 -139.3125 101.75 C-139.30686035 100.65953369 -139.3012207 99.56906738 -139.29541016 98.44555664 C-138.92427117 73.60312954 -129.7629206 49.51932956 -113 31 C-112.236875 30.13246094 -111.47375 29.26492187 -110.6875 28.37109375 C-83.51980295 -0.7430694 -37.91352733 -12.80467865 0 0 Z M-70 17 C-70 62.87 -70 108.74 -70 156 C-61.30322852 153.10107617 -57.16030166 150.2646913 -52.9453125 142.0859375 C-51.35914394 138.58587959 -50.87577183 135.88636154 -50.87974548 132.08357239 C-50.87837082 131.06974991 -50.87699615 130.05592743 -50.87557983 129.01138306 C-50.87917511 127.90008026 -50.88277039 126.78877747 -50.88647461 125.64379883 C-50.88632858 124.47293228 -50.88618256 123.30206573 -50.8860321 122.09571838 C-50.88660975 118.88523724 -50.89162802 115.67479957 -50.89860606 112.4643271 C-50.90485369 109.10908843 -50.90544452 105.75384893 -50.90663147 102.39860535 C-50.90974062 96.04507247 -50.91794842 89.69155678 -50.92798096 83.33803147 C-50.93915499 76.10472827 -50.9446558 68.87142425 -50.94967639 61.63811457 C-50.96013136 46.75873347 -50.97772278 31.87936845 -51 17 C-57.44617404 15.48068146 -57.44617404 15.48068146 -70 17 Z M-112 47 C-112.045201 58.76129916 -112.08188753 70.52254054 -112.10362434 82.28390694 C-112.11405739 87.74529373 -112.12820795 93.20661796 -112.15087891 98.66796875 C-112.1726242 103.93937672 -112.18457224 109.21072455 -112.18975449 114.48217392 C-112.1934472 116.49238914 -112.20065812 118.5026011 -112.21146011 120.51279068 C-112.22599733 123.33037659 -112.22797699 126.1477146 -112.22705078 128.96533203 C-112.23424133 129.79467758 -112.24143188 130.62402313 -112.24884033 131.47850037 C-112.22301821 138.747429 -110.69408234 143.94797741 -105.78125 149.390625 C-99.73027239 154.85773635 -92.91836197 156.15227619 -85 156 C-85.78375 155.4225 -86.5675 154.845 -87.375 154.25 C-90.34620172 151.70325567 -91.76725172 149.84050151 -92.26171303 145.93045425 C-92.26724379 145.1893327 -92.27277454 144.44821114 -92.2784729 143.68463135 C-92.28963638 142.82930313 -92.30079987 141.97397491 -92.31230164 141.09272766 C-92.31446182 140.16268417 -92.31662201 139.23264069 -92.31884766 138.27441406 C-92.32889328 137.28871933 -92.3389389 136.3030246 -92.34928894 135.28746033 C-92.38017369 132.0301878 -92.39717094 128.77299767 -92.4140625 125.515625 C-92.43276987 123.25688973 -92.45234296 120.99816149 -92.4727478 118.73944092 C-92.52412041 112.79486221 -92.56371879 106.85026082 -92.60089111 100.90557861 C-92.64089854 94.83933887 -92.69200577 88.77319385 -92.7421875 82.70703125 C-92.83900762 70.80474735 -92.92236726 58.90242453 -93 47 C-99.27 47 -105.54 47 -112 47 Z M-28 47 C-27.54625 48.44375 -27.0925 49.8875 -26.625 51.375 C-22.19718963 66.35820666 -22.36339132 79.62553334 -25.5 94.9375 C-28.7092935 112.06975981 -27.91806505 125.09292012 -24.79956055 142.22241211 C-22.41259355 155.63965177 -21.30224782 167.2849151 -26.125 180.36328125 C-27.20997467 183.16971738 -27.20997467 183.16971738 -27 187 C-24.22813012 187.10787818 -21.46044463 187.18723327 -18.6875 187.25 C-17.50897461 187.30027344 -17.50897461 187.30027344 -16.30664062 187.3515625 C-11.80522319 187.53962761 -11.80522319 187.53962761 -8.09375 185.33203125 C-0.50032964 169.14177428 -2.25704713 153.81900562 -5.5 136.75 C-9.03358929 118.15125443 -7.70372876 102.75854021 -3.38671875 84.390625 C-1.21946741 70.99307128 -3.72468879 59.3090595 -9 47 C-15.27 47 -21.54 47 -28 47 Z M21 47 C21.59717864 54.12142913 21.59717864 54.12142913 22.9375 61.125 C25.93600528 73.96414829 26.29937715 86.85094852 26.20581055 99.96728516 C26.18728181 102.65667002 26.18530357 105.34571346 26.18554688 108.03515625 C26.18063911 109.76562796 26.17481406 111.49609737 26.16796875 113.2265625 C26.16685593 114.02035309 26.1657431 114.81414368 26.16459656 115.63198853 C26.12852535 119.86527397 25.8215366 123.83039212 25 128 C24.87689453 128.71768555 24.75378906 129.43537109 24.62695312 130.17480469 C24.51287109 130.83383789 24.39878906 131.49287109 24.28125 132.171875 C22.9225528 140.10377542 21.64745966 147.97150017 21 156 C27.32629569 156.90375653 32.67370431 156.90375653 39 156 C49.4747908 123.19316789 49.89720726 79.69162177 39 47 C33.06 47 27.12 47 21 47 Z " fill="#43C73E" transform="translate(160,148)"/>
<path d="M0 0 C0.66 0.99 1.32 1.98 2 3 C0.02 6.96 -1.96 10.92 -4 15 C-6.97 14.67 -9.94 14.34 -13 14 C-13.33 19.94 -13.66 25.88 -14 32 C-6.41 32 1.18 32 9 32 C10.60875 34.84625 12.2175 37.6925 13.875 40.625 C14.3788623 41.51010254 14.88272461 42.39520508 15.40185547 43.30712891 C17.72641416 47.45659224 19.70244411 51.39143943 21 56 C21.66 56 22.32 56 23 56 C23.5259375 54.205625 23.5259375 54.205625 24.0625 52.375 C26.11786521 46.15925786 29.30253514 36.69746486 34 32 C35.4887186 31.91330568 36.981445 31.89296506 38.47265625 31.90234375 C39.37177734 31.90556641 40.27089844 31.90878906 41.19726562 31.91210938 C42.61555664 31.92467773 42.61555664 31.92467773 44.0625 31.9375 C45.4865918 31.94426758 45.4865918 31.94426758 46.93945312 31.95117188 C49.29303065 31.9629989 51.64648477 31.97947975 54 32 C47.36850519 49.31914664 37.46551055 65.75147471 28.9274292 82.21154785 C28.06564684 83.87340679 27.2048998 85.5358025 26.34423828 87.19824219 C24.96290266 89.86356645 23.57654338 92.52618651 22.1875 95.1875 C21.79771973 95.9400708 21.40793945 96.6926416 21.00634766 97.46801758 C17.02578635 105.05679966 17.02578635 105.05679966 15 107 C8.4699647 108.45602139 1.53894024 108.3686154 -5 107 C-3.7365983 102.94534466 -2.23453696 99.27578611 -0.25 95.5234375 C0.2759375 94.523125 0.801875 93.5228125 1.34375 92.4921875 C1.8903125 91.46351563 2.436875 90.43484375 3 89.375 C4.0835158 87.32040872 5.16685623 85.26572494 6.25 83.2109375 C6.72953125 82.30649902 7.2090625 81.40206055 7.703125 80.47021484 C8.13109375 79.65504395 8.5590625 78.83987305 9 78 C9.44512939 77.35192383 9.89025879 76.70384766 10.34887695 76.03613281 C11.27533373 73.87065093 11.27533373 73.87065093 9.95776367 71.28271484 C9.36713135 70.26902832 8.77649902 69.2553418 8.16796875 68.2109375 C7.53439453 67.10492188 6.90082031 65.99890625 6.24804688 64.859375 C5.56160372 63.69767678 4.87474999 62.53622108 4.1875 61.375 C3.51088797 60.20658602 2.83573952 59.03732318 2.16210938 57.8671875 C0.92557149 55.72668916 -0.3177058 53.59006122 -1.56958008 51.45849609 C-2.42080537 49.99547532 -3.24303048 48.51393904 -4 47 C-7.3 46.67 -10.6 46.34 -14 46 C-14 57.88 -14 69.76 -14 82 C-19.94 82 -25.88 82 -32 82 C-32 70.12 -32 58.24 -32 46 C-34.31 46 -36.62 46 -39 46 C-40.54799337 41.35601989 -40.49594333 36.67482292 -39 32 C-36.69 32 -34.38 32 -32 32 C-32.03480469 30.7934375 -32.06960938 29.586875 -32.10546875 28.34375 C-32.13362984 26.72918072 -32.16092749 25.11459621 -32.1875 23.5 C-32.21263672 22.70851562 -32.23777344 21.91703125 -32.26367188 21.1015625 C-32.35948036 13.30913871 -30.59240778 6.75689036 -25 1 C-17.21669976 -4.44831017 -8.42701409 -4.17059964 0 0 Z " fill="#45C73F" transform="translate(435,194)"/>
<path d="M0 0 C6.27 0 12.54 0 19 0 C19.01458252 1.60439941 19.02916504 3.20879883 19.04418945 4.86181641 C19.10222027 10.82200253 19.1794539 16.78181277 19.26245117 22.74169922 C19.29567781 25.3197621 19.32371673 27.89789733 19.34643555 30.47607422 C19.38002207 34.18488354 19.43234244 37.8930312 19.48828125 41.6015625 C19.49467117 42.75177887 19.5010611 43.90199524 19.50764465 45.08706665 C19.62490834 52.97475409 19.62490834 52.97475409 23 60 C27.27134065 62.84756044 30.9920972 62.48799053 36 62 C39.0745356 61.2236068 39.0745356 61.2236068 41 59 C43.16112922 52.35627979 43.33936532 46.00940258 43.4140625 39.0625 C43.43342865 37.94182129 43.4527948 36.82114258 43.4727478 35.66650391 C43.53220132 32.11107837 43.57879186 28.55561987 43.625 25 C43.66321127 22.5794135 43.7022648 20.15884013 43.7421875 17.73828125 C43.83787455 11.82563806 43.92302091 5.91291477 44 0 C46.97922593 -0.02683987 49.95821295 -0.04676037 52.9375 -0.0625 C54.21270508 -0.07506836 54.21270508 -0.07506836 55.51367188 -0.08789062 C56.32255859 -0.09111328 57.13144531 -0.09433594 57.96484375 -0.09765625 C58.7137085 -0.10289307 59.46257324 -0.10812988 60.23413086 -0.11352539 C62 0 62 0 63 1 C63.10393697 2.63470336 63.13852773 4.27387482 63.14526367 5.91186523 C63.15164352 6.96063339 63.15802338 8.00940155 63.16459656 9.08995056 C63.16570938 10.23460281 63.1668222 11.37925507 63.16796875 12.55859375 C63.17296135 14.31877586 63.17296135 14.31877586 63.17805481 16.11451721 C63.18313235 18.60881151 63.18546288 21.10311265 63.18530273 23.59741211 C63.18747278 27.38992812 63.20557413 31.18214554 63.22460938 34.97460938 C63.22754652 37.39843651 63.22952917 39.82226502 63.23046875 42.24609375 C63.23765427 43.37252792 63.24483978 44.4989621 63.25224304 45.65953064 C63.22005189 56.9297522 62.06369852 65.77888467 54.8125 74.6875 C45.48595694 82.35599096 34.14146376 82.88512586 22.5390625 81.76171875 C15.34336245 80.51193927 9.86129234 76.71069801 4.625 71.75 C-0.32110085 63.37967549 -0.41154146 54.60477767 -0.29296875 45.1171875 C-0.28660149 43.17406174 -0.28660149 43.17406174 -0.28010559 41.19168091 C-0.26876378 37.78200245 -0.23939184 34.37272 -0.20599365 30.9631958 C-0.17505967 27.47030999 -0.16155093 23.97735891 -0.14648438 20.484375 C-0.1145091 13.65607296 -0.06183147 6.82809638 0 0 Z " fill="#44C63F" transform="translate(247,196)"/>
<path d="M0 0 C5.61 0 11.22 0 17 0 C17.8594396 8.10038739 18.12450729 16.04546604 18.0625 24.1875 C18.05798828 25.33025391 18.05347656 26.47300781 18.04882812 27.65039062 C18.03718268 30.4336511 18.02082997 33.21679572 18 36 C18.86902954 35.57448853 18.86902954 35.57448853 19.75561523 35.14038086 C27.57507453 31.46106257 34.88556355 30.44949645 43.3125 33.0625 C49.49511314 35.83889176 53.61645644 40.53748495 56.4375 46.625 C59.09824069 54.19256117 59.39616662 62.46118175 56.3125 69.9375 C52.82344799 76.59841747 48.76677934 80.67812651 42 84 C34.50638266 86.26760765 28.01649465 85.14532519 21 82 C19.515 81.01 19.515 81.01 18 80 C17.67 80.99 17.34 81.98 17 83 C11.39 83 5.78 83 0 83 C0 55.61 0 28.22 0 0 Z M18.0625 52.125 C16.51678847 56.30751354 16.64229201 59.75812135 18 64 C20.67853863 67.28120982 22.13575075 68.60356035 26.22265625 69.47265625 C30.62823998 69.75949726 32.45634946 69.43039001 36 66.625 C39.13200784 62.51423972 39.35197606 60.19164686 39 55 C37.20867493 50.85166825 35.10966469 48.85913402 31 47 C25.72895388 46.18906983 21.60039946 48.24472317 18.0625 52.125 Z " fill="#44C73E" transform="translate(315,193)"/>
<path d="M0 0 C5.61 0 11.22 0 17 0 C17 16.5 17 33 17 50 C11.39 50 5.78 50 0 50 C0 33.5 0 17 0 0 Z " fill="#46C641" transform="translate(376,226)"/>
<path d="M0 0 C2.87029869 1.79393668 4.49131638 2.98263276 6 6 C6.68128376 12.81283762 6.68128376 12.81283762 4.953125 15.82421875 C2.2637801 19.09098182 0.4656668 20.83344695 -3.75 21.3125 C-7.85767229 20.91753151 -9.82926614 19.5942368 -13 17 C-15.35062814 13.794598 -15.39807915 10.90117562 -15 7 C-11.68933924 0.06337746 -7.20314329 -1.06151585 0 0 Z " fill="#42C73C" transform="translate(389,196)"/>
<path d="M0 0 C0.62380692 3.23235647 0.5320998 6.44947574 0.49829102 9.73217773 C0.50380981 10.73080841 0.50932861 11.72943909 0.51501465 12.7583313 C0.52434845 14.92890391 0.52442849 17.09953127 0.51642036 19.27010918 C0.50383279 22.7036322 0.51504137 26.13634631 0.53245544 29.56983948 C0.55920853 35.6198499 0.56474916 41.66966338 0.56335449 47.71972656 C0.5611294 57.4007842 0.57515933 67.081598 0.61894035 76.76255989 C0.62880382 80.1484307 0.62004773 83.53392137 0.61024475 86.91978455 C0.61638773 88.99266817 0.62329905 91.0655497 0.63110352 93.13842773 C0.62338425 94.08245956 0.61566498 95.02649139 0.60771179 95.99913025 C0.60545663 101.0443352 0.60545663 101.0443352 2.52305603 105.61634827 C3.01044754 106.07295334 3.49783905 106.52955841 4 107 C1.59767758 106.03907103 0.26230995 105.42438119 -1.11778069 103.19158554 C-2.06624719 100.83543052 -2.24679918 99.2132698 -2.24050903 96.68463135 C-2.24325836 95.82930313 -2.24600769 94.97397491 -2.24884033 94.09272766 C-2.24164978 93.16268417 -2.23445923 92.23264069 -2.22705078 91.27441406 C-2.22734283 90.28871933 -2.22763489 89.3030246 -2.22793579 88.28746033 C-2.22654269 85.03009227 -2.21098223 81.77295309 -2.1953125 78.515625 C-2.1915823 76.25689824 -2.18873536 73.99816987 -2.18673706 71.73944092 C-2.17910114 65.7947747 -2.15945291 59.85020622 -2.1373291 53.90557861 C-2.11686985 47.83940961 -2.10773517 41.77322481 -2.09765625 35.70703125 C-2.07620705 23.80463765 -2.04102515 11.90234224 -2 0 C-8.27 0 -14.54 0 -21 0 C-20.67 31.35 -20.34 62.7 -20 95 C-22.65088252 92.34911748 -22.24085592 90.40306224 -22.25994873 86.79690552 C-22.25432922 85.92669769 -22.24870972 85.05648987 -22.24291992 84.15991211 C-22.24481827 83.24439072 -22.24671661 82.32886932 -22.24867249 81.38560486 C-22.25238722 78.34943163 -22.2416669 75.31349584 -22.23046875 72.27734375 C-22.22927733 70.17509489 -22.22882371 68.07284549 -22.2290802 65.97059631 C-22.22751417 61.56133703 -22.21921484 57.15215881 -22.20581055 52.74291992 C-22.18881013 47.07750485 -22.18499643 41.41217888 -22.18575573 35.74674129 C-22.18548445 31.40518842 -22.18001012 27.0636552 -22.17275429 22.72210884 C-22.16956161 20.63241284 -22.16759882 18.54271459 -22.16686058 16.45301628 C-22.16470393 13.53886962 -22.15597471 10.62481946 -22.14526367 7.71069336 C-22.14571686 6.8384613 -22.14617004 5.96622925 -22.14663696 5.06756592 C-22.1144741 -0.8855259 -22.1144741 -0.8855259 -21 -2 C-18.2205747 -2.31899887 -15.47610272 -2.56210729 -12.6875 -2.75 C-11.91470703 -2.81832031 -11.14191406 -2.88664063 -10.34570312 -2.95703125 C-9.59611328 -3.00730469 -8.84652344 -3.05757812 -8.07421875 -3.109375 C-7.38932373 -3.16061523 -6.70442871 -3.21185547 -5.9987793 -3.26464844 C-3.02713229 -2.87118742 -2.04718831 -2.2464076 0 0 Z " fill="#62BE5A" transform="translate(69,195)"/>
<path d="M0 0 C3.14621682 0.13822199 6.29185566 0.28685084 9.4375 0.4375 C10.33533203 0.47681641 11.23316406 0.51613281 12.15820312 0.55664062 C13.01220703 0.59853516 13.86621094 0.64042969 14.74609375 0.68359375 C15.53685303 0.72025146 16.3276123 0.75690918 17.14233398 0.79467773 C19 1 19 1 20 2 C20.10463096 3.57595158 20.13963579 5.15657405 20.14717102 6.73597717 C20.15432632 7.76073151 20.16148163 8.78548584 20.16885376 9.84129333 C20.17288712 11.54225914 20.17288712 11.54225914 20.17700195 13.27758789 C20.18357315 14.46457275 20.19014435 15.65155762 20.19691467 16.87451172 C20.2132902 20.14141571 20.22488574 23.4082861 20.2331202 26.67521977 C20.238268 28.71740108 20.24434406 30.75957782 20.25063133 32.80175591 C20.26969773 39.1940467 20.28392157 45.58632588 20.2922433 51.97863966 C20.30199961 59.35122163 20.32827055 66.72350206 20.36874419 74.09597784 C20.39895999 79.79629072 20.41371762 85.49651751 20.41702431 91.19690889 C20.41937009 94.59995059 20.42826683 98.00267072 20.45348549 101.4056263 C20.47783469 105.20954431 20.47691855 109.01267828 20.4699707 112.81665039 C20.48278076 113.93645798 20.49559082 115.05626556 20.50878906 116.21000671 C20.46416912 122.92176542 19.65129012 127.30929519 16 133 C14.515 133.99 14.515 133.99 13 135 C14.07839117 132.2625455 15.17842423 129.6615825 16.55293274 127.05455017 C18.73775711 121.92398696 18.39455233 116.67908779 18.34057617 111.18969727 C18.34101425 110.01824661 18.34145233 108.84679596 18.34190369 107.6398468 C18.33981976 103.78186161 18.31650645 99.9243152 18.29296875 96.06640625 C18.28737139 93.38597376 18.28295432 90.70556532 18.28010559 88.02513123 C18.27080162 81.69999747 18.24621038 75.37502029 18.21605712 69.04995531 C18.18246158 61.84559912 18.16601419 54.64123524 18.15097082 47.43682015 C18.11965919 32.62446502 18.06632279 17.81224043 18 3 C11.73 3 5.46 3 -1 3 C-0.67 2.01 -0.34 1.02 0 0 Z " fill="#72C16A" transform="translate(90,162)"/>
<path d="M0 0 C0.33 0 0.66 0 1 0 C0.94199219 1.10730469 0.88398438 2.21460938 0.82421875 3.35546875 C0.45590113 14.11379631 1.50912073 24.10671341 3.5 34.6875 C6.79968396 52.57028984 6.83277677 65.6474891 1 83 C6.61 83 12.22 83 18 83 C18 83.66 18 84.32 18 85 C12.06 85 6.12 85 0 85 C-0.33 84.01 -0.66 83.02 -1 82 C-1.99 82 -2.98 82 -4 82 C-4 81.34 -4 80.68 -4 80 C-2.68 80 -1.36 80 0 80 C5.47165726 63.3896119 2.88263176 46.04454114 1 29 C0.34 29 -0.32 29 -1 29 C-1.02903892 24.91668161 -1.04681189 20.8333898 -1.0625 16.75 C-1.07087891 15.59113281 -1.07925781 14.43226563 -1.08789062 13.23828125 C-1.09111328 12.12324219 -1.09433594 11.00820313 -1.09765625 9.859375 C-1.10289307 8.83295898 -1.10812988 7.80654297 -1.11352539 6.74902344 C-1.01336951 4.32374344 -0.69923078 2.31302639 0 0 Z " fill="#5EC354" transform="translate(132,252)"/>
<path d="M0 0 C0.33 0 0.66 0 1 0 C1 45.54 1 91.08 1 138 C4.63 136.02 8.26 134.04 12 132 C12.66 131.67 13.32 131.34 14 131 C13.67 132.65 13.34 134.3 13 136 C10.69 136.33 8.38 136.66 6 137 C6 137.66 6 138.32 6 139 C4.02 139 2.04 139 0 139 C-0.98125758 135.72895607 -1.11079398 132.80159151 -1.08229065 129.39385986 C-1.07525116 128.25245041 -1.06821167 127.11104095 -1.06095886 125.93504333 C-1.04153984 124.06309044 -1.04153984 124.06309044 -1.02172852 122.15332031 C-1.01212097 120.83600418 -1.00251343 119.51868805 -0.99261475 118.16145325 C-0.96617533 114.55225246 -0.93338741 110.94313394 -0.89946485 107.33399677 C-0.8650806 103.56105217 -0.83652767 99.78806356 -0.80735779 96.01507568 C-0.75124425 88.87176993 -0.68988178 81.72851928 -0.62663645 74.5852735 C-0.55488406 66.45235694 -0.48897868 58.31939628 -0.42356598 50.18642664 C-0.28888622 33.45756005 -0.14685872 16.7287642 0 0 Z " fill="#61BE56" transform="translate(89,166)"/>
<path d="M0 0 C0.33 0 0.66 0 1 0 C1.05095684 7.50729454 1.08584105 15.014544 1.10986328 22.52197266 C1.11988416 25.07277086 1.13350451 27.62355769 1.15087891 30.17431641 C1.17529958 33.85321879 1.18652259 37.53196849 1.1953125 41.2109375 C1.20563507 42.34050873 1.21595764 43.47007996 1.22659302 44.63388062 C1.22772989 52.76454336 0.93536627 60.71746203 -3 68 C-3.33 68 -3.66 68 -4 68 C-4 66.02 -4 64.04 -4 62 C-3.34 62 -2.68 62 -2 62 C-2.185625 61.29875 -2.37125 60.5975 -2.5625 59.875 C-3 57 -3 57 -2.56079102 54.55419922 C-1.75857987 49.4699198 -1.64768217 44.39709196 -1.46484375 39.2578125 C-1.42186661 38.13430389 -1.37888947 37.01079529 -1.33460999 35.85324097 C-1.19864476 32.27728559 -1.06800095 28.70115855 -0.9375 25.125 C-0.84605443 22.69529925 -0.75426152 20.26561155 -0.66210938 17.8359375 C-0.43738091 11.8907703 -0.21701704 5.94545342 0 0 Z " fill="#60C754" transform="translate(309,197)"/>
<path d="M0 0 C3.70363362 6.61363147 4.32015784 13.09834832 4.25 20.5 C4.25773438 21.31597656 4.26546875 22.13195312 4.2734375 22.97265625 C4.25721253 28.02673568 3.62214882 32.21079873 2 37 C2.99 37 3.98 37 5 37 C5 37.99 5 38.98 5 40 C3.68 40 2.36 40 1 40 C1.33 42.64 1.66 45.28 2 48 C1.67 47.34 1.34 46.68 1 46 C-1.97 46.495 -1.97 46.495 -5 47 C-4.65066406 46.10796875 -4.30132812 45.2159375 -3.94140625 44.296875 C-3.25884766 42.54117188 -3.25884766 42.54117188 -2.5625 40.75 C-2.11003906 39.58984375 -1.65757812 38.4296875 -1.19140625 37.234375 C0.25477088 33.3083597 1.12611814 30.02429633 1.1328125 25.83984375 C1.13474609 25.0506958 1.13667969 24.26154785 1.13867188 23.44848633 C1.13416016 22.61986084 1.12964844 21.79123535 1.125 20.9375 C1.12209961 19.66845825 1.12209961 19.66845825 1.11914062 18.3737793 C1.07670889 12.20998101 0.77017576 6.12014666 0 0 Z " fill="#62C15A" transform="translate(155,288)"/>
<path d="M0 0 C0.33 0 0.66 0 1 0 C3.80226302 21.56741719 2.80520722 40.24671539 -4 61 C-5.04702186 57.2735915 -5.07442057 53.86986958 -5 50 C-4.01 49.505 -4.01 49.505 -3 49 C-3 46.36 -3 43.72 -3 41 C-2.01 40.505 -2.01 40.505 -1 40 C0.76808868 31.54314903 0.11822971 22.39916263 0.0625 13.8125 C0.05746963 12.46549648 0.05290947 11.11849111 0.04882812 9.77148438 C0.03715354 6.51427463 0.02077883 3.25716222 0 0 Z " fill="#62C65A" transform="translate(231,228)"/>
<path d="M0 0 C0.33 0 0.66 0 1 0 C0.85677897 1.54191154 0.71028211 3.08351892 0.5625 4.625 C0.48128906 5.48351562 0.40007812 6.34203125 0.31640625 7.2265625 C-0.01879197 10.16471971 -0.51383671 13.08302024 -1 16 C4.94 16 10.88 16 17 16 C17.99 10.72 18.98 5.44 20 0 C20.33 0 20.66 0 21 0 C21 2.31 21 4.62 21 7 C21.66 7 22.32 7 23 7 C22.67 8.32 22.34 9.64 22 11 C21.01 11 20.02 11 19 11 C19.020625 11.804375 19.04125 12.60875 19.0625 13.4375 C19 16 19 16 18 17 C15.41015014 17.26608047 12.84678984 17.46955835 10.25 17.625 C9.53328125 17.6765625 8.8165625 17.728125 8.078125 17.78125 C4.20263182 18.02346832 0.76377757 17.99280747 -3 17 C-4.36129032 9.57478006 -4.36129032 9.57478006 -2.625 6.8125 C-1.820625 5.9153125 -1.820625 5.9153125 -1 5 C-0.28566879 2.35065178 -0.28566879 2.35065178 0 0 Z " fill="#62C45A" transform="translate(182,288)"/>
<path d="M0 0 C0.83660156 0.00386719 1.67320312 0.00773438 2.53515625 0.01171875 C3.36402344 0.00785156 4.19289062 0.00398437 5.046875 0 C5.84480469 0.00128906 6.64273438 0.00257813 7.46484375 0.00390625 C8.5628833 0.00559814 8.5628833 0.00559814 9.68310547 0.00732422 C11.66015625 0.13671875 11.66015625 0.13671875 14.66015625 1.13671875 C14.66015625 3.44671875 14.66015625 5.75671875 14.66015625 8.13671875 C12.66015625 5.13671875 12.66015625 5.13671875 12.66015625 2.13671875 C6.72015625 2.13671875 0.78015625 2.13671875 -5.33984375 2.13671875 C-5.05109375 3.45027344 -4.76234375 4.76382813 -4.46484375 6.1171875 C-4.08957479 7.85280645 -3.71458967 9.58848679 -3.33984375 11.32421875 C-3.1490625 12.18853516 -2.95828125 13.05285156 -2.76171875 13.94335938 C-2.58125 14.78447266 -2.40078125 15.62558594 -2.21484375 16.4921875 C-2.04726562 17.26199951 -1.8796875 18.03181152 -1.70703125 18.82495117 C-1.3143346 21.29732122 -1.2779909 23.63747684 -1.33984375 26.13671875 C-3.52894719 23.94761531 -3.76332853 23.11031463 -4.41015625 20.1796875 C-4.67119141 19.0050293 -4.67119141 19.0050293 -4.9375 17.80664062 C-5.19853516 16.5778418 -5.19853516 16.5778418 -5.46484375 15.32421875 C-5.64660156 14.51662109 -5.82835937 13.70902344 -6.015625 12.87695312 C-7.70149252 5.13844096 -7.70149252 5.13844096 -7.33984375 1.13671875 C-5.40940689 -0.79371811 -2.56459573 0.00415656 0 0 Z " fill="#6CC564" transform="translate(186.33984375,192.86328125)"/>
<path d="M0 0 C0.99 0.495 0.99 0.495 2 1 C2 20.8 2 40.6 2 61 C3.32 61.66 4.64 62.32 6 63 C5.01 63.495 5.01 63.495 4 64 C3.67 64.99 3.34 65.98 3 67 C3.66 67.33 4.32 67.66 5 68 C4.01 68 3.02 68 2 68 C0.15664726 64.06748942 -0.24439365 60.97621507 -0.22705078 56.64916992 C-0.22689972 55.3882402 -0.22674866 54.12731049 -0.22659302 52.82817078 C-0.21638136 51.46226848 -0.2059494 50.09636781 -0.1953125 48.73046875 C-0.19157941 47.32514141 -0.18873383 45.91981147 -0.18673706 44.51448059 C-0.17912389 40.82700332 -0.15949553 37.13968518 -0.1373291 33.45227051 C-0.11682059 29.68499911 -0.10772467 25.91770184 -0.09765625 22.15039062 C-0.07624725 14.76685477 -0.04213954 7.38344974 0 0 Z " fill="#4DC047" transform="translate(248,197)"/>
<path d="M0 0 C0 0.66 0 1.32 0 2 C0.66 2 1.32 2 2 2 C2 1.01 2 0.02 2 -1 C2.66 -1 3.32 -1 4 -1 C3.34 0.98 2.68 2.96 2 5 C-0.97 4.67 -3.94 4.34 -7 4 C-7.33 9.94 -7.66 15.88 -8 22 C-0.41 22 7.18 22 15 22 C14.67 22.66 14.34 23.32 14 24 C2.615 23.505 2.615 23.505 -9 23 C-9.12375 19.7825 -9.2475 16.565 -9.375 13.25 C-9.42962402 12.24227539 -9.48424805 11.23455078 -9.54052734 10.19628906 C-9.58748418 7.68283615 -9.53821292 5.45946994 -9 3 C-4.33618844 -1.44539615 -4.33618844 -1.44539615 0 0 Z " fill="#6BC361" transform="translate(429,204)"/>
<path d="M0 0 C6.62948207 0.89243028 6.62948207 0.89243028 8.9375 1.5625 C11.07912535 2.01678417 12.87858375 1.9930906 15.0625 1.9375 C19 2 19 2 22 4 C24.90644244 4.36887189 24.90644244 4.36887189 28.19921875 4.4140625 C29.40771484 4.45273437 30.61621094 4.49140625 31.86132812 4.53125 C33.7552832 4.57765625 33.7552832 4.57765625 35.6875 4.625 C36.96173828 4.66367187 38.23597656 4.70234375 39.54882812 4.7421875 C42.69907292 4.83657686 45.84930991 4.9221583 49 5 C49 5.33 49 5.66 49 6 C31.93057589 7.59890808 16.32272648 6.40591906 0 1 C0 0.67 0 0.34 0 0 Z " fill="#74CF6E" transform="translate(92,350)"/>
<path d="M0 0 C0.33 0 0.66 0 1 0 C0.94199219 1.10730469 0.88398438 2.21460938 0.82421875 3.35546875 C0.2906213 18.96986402 3.01452277 33.7486578 6 49 C5.34 49 4.68 49 4 49 C3.49550598 46.41747107 2.99625699 43.83411297 2.5 41.25 C2.35691406 40.52039063 2.21382812 39.79078125 2.06640625 39.0390625 C1.41111121 35.60656468 1 32.50830509 1 29 C0.34 29 -0.32 29 -1 29 C-1.02903892 24.91668161 -1.04681189 20.8333898 -1.0625 16.75 C-1.07087891 15.59113281 -1.07925781 14.43226563 -1.08789062 13.23828125 C-1.09111328 12.12324219 -1.09433594 11.00820313 -1.09765625 9.859375 C-1.10289307 8.83295898 -1.10812988 7.80654297 -1.11352539 6.74902344 C-1.01336951 4.32374344 -0.69923078 2.31302639 0 0 Z " fill="#70C768" transform="translate(132,252)"/>
<path d="M0 0 C0.33 0 0.66 0 1 0 C1.52668153 5.79349678 -0.84731686 10.27097529 -4 15 C-4 16.32 -4 17.64 -4 19 C-6.5 20.5 -6.5 20.5 -9 22 C-9 23.32 -9 24.64 -9 26 C-9.99 26 -10.98 26 -12 26 C-12 22.7 -12 19.4 -12 16 C-11.34 17.32 -10.68 18.64 -10 20 C-9.34 20 -8.68 20 -8 20 C-7.608125 18.741875 -7.21625 17.48375 -6.8125 16.1875 C-4.96115906 10.59787448 -2.51454474 5.31731793 0 0 Z " fill="#4FC14B" transform="translate(466,230)"/>
<path d="M0 0 C0 0.99 0 1.98 0 3 C-0.66 3 -1.32 3 -2 3 C-2 3.99 -2 4.98 -2 6 C-9.42857143 6.28571429 -9.42857143 6.28571429 -13 4 C-13 3.01 -13 2.02 -13 1 C-11.39602723 0.83147753 -9.7918131 0.66525114 -8.1875 0.5 C-7.29417969 0.4071875 -6.40085937 0.314375 -5.48046875 0.21875 C-3 0 -3 0 0 0 Z " fill="#3CCA35" transform="translate(392,209)"/>
<path d="M0 0 C1.65 0 3.3 0 5 0 C7 6 7 6 7 9 C6.34 9 5.68 9 5 9 C4.67 10.65 4.34 12.3 4 14 C3.34 13.67 2.68 13.34 2 13 C1.3671875 10.05859375 1.3671875 10.05859375 0.875 6.4375 C0.70742187 5.23996094 0.53984375 4.04242188 0.3671875 2.80859375 C0.24601563 1.88175781 0.12484375 0.95492188 0 0 Z " fill="#51C74A" transform="translate(152,274)"/>
<path d="M0 0 C0.66 0 1.32 0 2 0 C2 0.99 2 1.98 2 3 C2.99 3 3.98 3 5 3 C5 3.99 5 4.98 5 6 C3.68 6 2.36 6 1 6 C1.33 8.64 1.66 11.28 2 14 C1.67 13.34 1.34 12.68 1 12 C-0.98 12.33 -2.96 12.66 -5 13 C-3.35 8.71 -1.7 4.42 0 0 Z " fill="#5DC954" transform="translate(155,322)"/>
<path d="M0 0 C0.33 0 0.66 0 1 0 C2.3671875 5.76171875 2.3671875 5.76171875 2 8 C-0.55133853 10.87843321 -2.27648079 12.67354234 -6.08935547 13.39575195 C-8.37169116 13.49107984 -10.59440438 13.43812603 -12.875 13.3125 C-13.65875 13.28994141 -14.4425 13.26738281 -15.25 13.24414062 C-17.1675026 13.18568018 -19.0840106 13.09601283 -21 13 C-21.33 11.35 -21.66 9.7 -22 8 C-21.38125 8.495 -20.7625 8.99 -20.125 9.5 C-14.86591438 12.0243611 -9.4938697 11.8312899 -4 10 C-1.00036826 7.00036826 -0.74653314 4.1398656 0 0 Z " fill="#65C85D" transform="translate(290,247)"/>
<path d="M0 0 C0.33 0.66 0.66 1.32 1 2 C1.66 2 2.32 2 3 2 C2.67 2.66 2.34 3.32 2 4 C1.01 4 0.02 4 -1 4 C-1.185625 4.94875 -1.37125 5.8975 -1.5625 6.875 C-2.2740625 8.421875 -2.2740625 8.421875 -3 10 C-5.31029085 10.74259349 -7.645752 11.411438 -10 12 C-11.49743888 13.98567734 -11.49743888 13.98567734 -12 16 C-12 12.32180832 -11.23156682 11.77617345 -8.8125 9.125 C-8.17828125 8.42632812 -7.5440625 7.72765625 -6.890625 7.0078125 C-4.64038137 4.61809096 -2.35642724 2.28502036 0 0 Z " fill="#5CC453" transform="translate(55,171)"/>
<path d="M0 0 C0.66 0.33 1.32 0.66 2 1 C2 1.66 2 2.32 2 3 C4.64 2.34 7.28 1.68 10 1 C9.38671875 2.94921875 9.38671875 2.94921875 8 5 C1.49858285 6.50032703 -5.48188943 6.3642557 -12 5 C-11.34 3.68 -10.68 2.36 -10 1 C-10 1.99 -10 2.98 -10 4 C-8.081875 3.8453125 -8.081875 3.8453125 -6.125 3.6875 C-5.40570313 3.62949219 -4.68640625 3.57148438 -3.9453125 3.51171875 C-1.60480784 3.12606964 -1.60480784 3.12606964 0 0 Z " fill="#66C15F" transform="translate(442,296)"/>
<path d="M0 0 C0.99 0.66 1.98 1.32 3 2 C2.484375 2.639375 1.96875 3.27875 1.4375 3.9375 C-0.54825311 8.1680175 -0.36215906 11.55637136 1 16 C3.99464065 19.3273785 6.58213737 20.49510141 11 21 C11 21.33 11 21.66 11 22 C9.37581255 22.08090971 7.75048255 22.13914995 6.125 22.1875 C5.22007812 22.22230469 4.31515625 22.25710938 3.3828125 22.29296875 C2.20332031 22.14794922 2.20332031 22.14794922 1 22 C-2.29744215 17.05383678 -2.49100391 11.85779081 -2 6 C-1 2.5 -1 2.5 0 0 Z " fill="#66C95C" transform="translate(333,241)"/>
<path d="M0 0 C0 0.33 0 0.66 0 1 C-1.58941406 1.05607422 -1.58941406 1.05607422 -3.2109375 1.11328125 C-4.59899424 1.17893258 -5.98701349 1.24538021 -7.375 1.3125 C-8.07367188 1.33505859 -8.77234375 1.35761719 -9.4921875 1.38085938 C-11.77288941 1.46984296 -11.77288941 1.46984296 -15 2 C-15.99 3.485 -15.99 3.485 -17 5 C-17.825 5.144375 -18.65 5.28875 -19.5 5.4375 C-22.16822177 5.72912652 -22.16822177 5.72912652 -23.3125 8.0625 C-23.6528125 9.0215625 -23.6528125 9.0215625 -24 10 C-24 7 -24 7 -21.9375 4.5 C-15.13703855 -1.28762677 -8.49924249 -2.06042242 0 0 Z " fill="#79D66F" transform="translate(431,192)"/>
<path d="M0 0 C0.33 0 0.66 0 1 0 C1.33 2.31 1.66 4.62 2 7 C2.99 6.67 3.98 6.34 5 6 C5.33 7.32 5.66 8.64 6 10 C9.3 10.66 12.6 11.32 16 12 C14 14 14 14 11.25 14.375 C7.17285613 13.90456032 5.15647356 12.58256928 2 10 C-0.35735328 6.78542734 -0.17742689 3.90339153 0 0 Z " fill="#63C558" transform="translate(374,203)"/>
<path d="M0 0 C1.0828125 1.11375 1.0828125 1.11375 2.1875 2.25 C7.53297142 7.47668316 11.87353339 9.95055862 19 12 C19 12.33 19 12.66 19 13 C16.87436897 12.88623383 14.7494739 12.75864369 12.625 12.625 C11.44164062 12.55539062 10.25828125 12.48578125 9.0390625 12.4140625 C6 12 6 12 4 10 C3.855625 9.38125 3.71125 8.7625 3.5625 8.125 C2.8864746 5.57112628 1.59364812 4.07867146 0 2 C0 1.34 0 0.68 0 0 Z " fill="#66C65E" transform="translate(49,291)"/>
<path d="M0 0 C1.28983433 2.57966865 2.08864192 5.26592575 3 8 C2.01 8.99 1.02 9.98 0 11 C-0.99 10.67 -1.98 10.34 -3 10 C-3.99 10.99 -4.98 11.98 -6 13 C-4.58707905 8.1725201 -2.57025846 4.2837641 0 0 Z " fill="#56C94F" transform="translate(35,196)"/>
<path d="M0 0 C7.7498635 0.52541447 14.6450086 2.55591476 22 5 C22 5.33 22 5.66 22 6 C19.69 6 17.38 6 15 6 C15 5.34 15 4.68 15 4 C12.03 4.66 9.06 5.32 6 6 C6 5.01 6 4.02 6 3 C4.02 2.34 2.04 1.68 0 1 C0 0.67 0 0.34 0 0 Z " fill="#66CD5E" transform="translate(144,145)"/>
<path d="M0 0 C2.475 0.99 2.475 0.99 5 2 C4.01 3.485 4.01 3.485 3 5 C2.54229325 7.74341518 2.16908662 10.42742471 1.875 13.1875 C1.78863281 13.93708984 1.70226562 14.68667969 1.61328125 15.45898438 C1.40161618 17.30517412 1.19984536 19.15249344 1 21 C0.67 21 0.34 21 0 21 C0 14.07 0 7.14 0 0 Z " fill="#50BD4A" transform="translate(315,203)"/>
<path d="M0 0 C-6.23352988 4.15568659 -13.76791678 3.1053216 -21 3 C-21 2.67 -21 2.34 -21 2 C-19.27318563 1.49193553 -17.54342021 0.99389533 -15.8125 0.5 C-14.84957031 0.2215625 -13.88664062 -0.056875 -12.89453125 -0.34375 C-8.32393803 -1.37999785 -4.53796279 -1.03724864 0 0 Z " fill="#60C557" transform="translate(293,275)"/>
<path d="M0 0 C1.32 0.33 2.64 0.66 4 1 C4 2.98 4 4.96 4 7 C4.99 7 5.98 7 7 7 C7 7.66 7 8.32 7 9 C7.78375 9.12375 8.5675 9.2475 9.375 9.375 C12 10 12 10 14 12 C8.59718274 11.37176544 4.94618782 10.08040767 1.1875 6.0625 C0 4 0 4 0 0 Z " fill="#53BF4F" transform="translate(330,265)"/>
<path d="M0 0 C0.7734375 -0.01675781 1.546875 -0.03351563 2.34375 -0.05078125 C4.97015897 0.39171157 5.83557103 1.29064557 7.5 3.3125 C5.52 2.6525 3.54 1.9925 1.5 1.3125 C0.84 2.6325 0.18 3.9525 -0.5 5.3125 C-1.16 5.3125 -1.82 5.3125 -2.5 5.3125 C-2.5 4.6525 -2.5 3.9925 -2.5 3.3125 C-3.82 3.3125 -5.14 3.3125 -6.5 3.3125 C-6.5 3.9725 -6.5 4.6325 -6.5 5.3125 C-7.16 5.3125 -7.82 5.3125 -8.5 5.3125 C-6.95891701 0.68925104 -4.53075804 0.02265379 0 0 Z " fill="#5CC353" transform="translate(384.5,195.6875)"/>
<path d="M0 0 C0.45375 0.495 0.9075 0.99 1.375 1.5 C2.87635519 3.22609337 2.87635519 3.22609337 5 3 C5 7.62 5 12.24 5 17 C2.5863604 14.5863604 2.24467148 12.90164101 1.375 9.625 C1.11460938 8.66851562 0.85421875 7.71203125 0.5859375 6.7265625 C0 4 0 4 0 0 Z " fill="#62CB59" transform="translate(23,270)"/>
<path d="M0 0 C0.66 0 1.32 0 2 0 C3.23104155 3.68400584 2.90767252 6.91474976 2.5625 10.75 C2.46066406 11.92046875 2.35882813 13.0909375 2.25390625 14.296875 C2.17011719 15.18890625 2.08632813 16.0809375 2 17 C1.34 17 0.68 17 0 17 C0 11.39 0 5.78 0 0 Z " fill="#55BD4F" transform="translate(315,243)"/>
<path d="M0 0 C0.99 0.33 1.98 0.66 3 1 C2.67 2.32 2.34 3.64 2 5 C2.99 5 3.98 5 5 5 C4.34 6.32 3.68 7.64 3 9 C2.34 8.67 1.68 8.34 1 8 C1 7.34 1 6.68 1 6 C-0.98 6.33 -2.96 6.66 -5 7 C-4.360625 6.21625 -3.72125 5.4325 -3.0625 4.625 C-1.01857687 2.20460719 -1.01857687 2.20460719 0 0 Z " fill="#57C650" transform="translate(353,255)"/>
<path d="M0 0 C1.07765625 0.01804688 2.1553125 0.03609375 3.265625 0.0546875 C4.49539063 0.08949219 4.49539063 0.08949219 5.75 0.125 C5.75 0.455 5.75 0.785 5.75 1.125 C4.96753906 1.17398438 4.18507813 1.22296875 3.37890625 1.2734375 C2.36699219 1.34820312 1.35507812 1.42296875 0.3125 1.5 C-0.69683594 1.56960937 -1.70617187 1.63921875 -2.74609375 1.7109375 C-3.98552734 1.91589844 -3.98552734 1.91589844 -5.25 2.125 C-5.58 2.785 -5.91 3.445 -6.25 4.125 C-5.59 4.785 -4.93 5.445 -4.25 6.125 C-5.57 6.455 -6.89 6.785 -8.25 7.125 C-8.91 5.475 -9.57 3.825 -10.25 2.125 C-6.7733662 -0.01836161 -4.03770805 -0.08777626 0 0 Z " fill="#59C451" transform="translate(348.25,224.875)"/>
<path d="M0 0 C0.99 0.33 1.98 0.66 3 1 C3 2.32 3 3.64 3 5 C4.32 4.67 5.64 4.34 7 4 C6.979375 4.886875 6.95875 5.77375 6.9375 6.6875 C6.99286219 9.62169631 7.3305734 12.15493696 8 15 C5.84821844 12.23612808 4.01629579 9.43466931 2.3125 6.375 C1.87550781 5.59898437 1.43851562 4.82296875 0.98828125 4.0234375 C0 2 0 2 0 0 Z " fill="#62C85C" transform="translate(432,241)"/>
<path d="M0 0 C0.54398437 0.48984375 1.08796875 0.9796875 1.6484375 1.484375 C4.53840052 3.34700898 6.21874115 3.34181291 9.625 3.25 C10.58664062 3.23453125 11.54828125 3.2190625 12.5390625 3.203125 C15.00331252 3.15339475 15.00331252 3.15339475 17 2 C17 2.99 17 3.98 17 5 C11.39 5 5.78 5 0 5 C0 3.35 0 1.7 0 0 Z " fill="#5BC457" transform="translate(315,271)"/>
<path d="M0 0 C0.66 0 1.32 0 2 0 C0.68938409 4.23429756 -0.94356259 8.07407404 -3 12 C-4 9 -4 9 -3.0625 6.8125 C-2.711875 6.214375 -2.36125 5.61625 -2 5 C-3.32 5 -4.64 5 -6 5 C-6 4.34 -6 3.68 -6 3 C-4.35 3 -2.7 3 -1 3 C-0.67 2.01 -0.34 1.02 0 0 Z " fill="#55C34F" transform="translate(484,231)"/>
<path d="M0 0 C0.99 0.33 1.98 0.66 3 1 C2.67 3.97 2.34 6.94 2 10 C-0.40072955 7.11912454 -2.47291037 4.43595166 -4 1 C-2.02 1.99 -2.02 1.99 0 3 C0 2.01 0 1.02 0 0 Z " fill="#59C94F" transform="translate(444,256)"/>
<path d="M0 0 C0.99 0.33 1.98 0.66 3 1 C2.34 2.32 1.68 3.64 1 5 C0.01 5 -0.98 5 -2 5 C-2 6.98 -2 8.96 -2 11 C-2.33 11 -2.66 11 -3 11 C-3.33 8.03 -3.66 5.06 -4 2 C-2.68 1.34 -1.36 0.68 0 0 Z " fill="#54C750" transform="translate(357,243)"/>
<path d="M0 0 C0.33 0 0.66 0 1 0 C1.52668153 5.79349678 -0.84731686 10.27097529 -4 15 C-4.66 15 -5.32 15 -6 15 C-4.40109514 9.80355921 -2.25861997 4.93387858 0 0 Z " fill="#67C55C" transform="translate(466,230)"/>
<path d="M0 0 C1.5 1 1.5 1 3 3 C3.39932738 6.09478718 3.64490868 8.04032979 3 11 C0.5 14 0.5 14 -2 16 C-2 15.01 -2 14.02 -2 13 C-1.34 13 -0.68 13 0 13 C1.00392976 6.474566 1.00392976 6.474566 0 0 Z " fill="#5DBC57" transform="translate(392,199)"/>
<path d="M0 0 C0.99 0.33 1.98 0.66 3 1 C3 1.66 3 2.32 3 3 C3.66 3 4.32 3 5 3 C5 2.01 5 1.02 5 0 C5.66 0 6.32 0 7 0 C6.34 1.98 5.68 3.96 5 6 C0.545 5.01 0.545 5.01 -4 4 C-2.68 2.68 -1.36 1.36 0 0 Z " fill="#57C051" transform="translate(426,203)"/>
<path d="M0 0 C0.33 0 0.66 0 1 0 C1.34615998 5.65394631 0.43425238 9.03006806 -2 14 C-2.33 14 -2.66 14 -3 14 C-3 12.02 -3 10.04 -3 8 C-2.34 8 -1.68 8 -1 8 C-1.20625 7.236875 -1.4125 6.47375 -1.625 5.6875 C-2 3 -2 3 0 0 Z " fill="#5EC459" transform="translate(308,251)"/>
<path d="M0 0 C5.97031739 0.29123499 8.894534 3.02814384 13 7 C12.01 7 11.02 7 10 7 C9.34 6.34 8.68 5.68 8 5 C5.42938689 4.35232207 5.42938689 4.35232207 3 4 C3 3.01 3 2.02 3 1 C2.01 0.67 1.02 0.34 0 0 Z " fill="#67C95B" transform="translate(354,226)"/>
<path d="M0 0 C1.18771723 3.42943519 0.80226223 5.37784675 -0.4375 8.75 C-0.86869141 9.94882812 -0.86869141 9.94882812 -1.30859375 11.171875 C-1.65083984 12.07679688 -1.65083984 12.07679688 -2 13 C-3.02708885 9.23952955 -3.28970736 5.91104938 -3 2 C-2.01 1.34 -1.02 0.68 0 0 Z " fill="#5BC554" transform="translate(229,276)"/>
<path d="M0 0 C0.66 0 1.32 0 2 0 C1.67 1.32 1.34 2.64 1 4 C-0.175625 4.12375 -0.175625 4.12375 -1.375 4.25 C-4.14749104 4.72806339 -4.14749104 4.72806339 -5.3125 7.0625 C-5.539375 7.701875 -5.76625 8.34125 -6 9 C-6 6 -6 6 -3.5625 3.375 C-2.716875 2.59125 -1.87125 1.8075 -1 1 C-0.67 0.67 -0.34 0.34 0 0 Z " fill="#67C35A" transform="translate(413,193)"/>
<path d="M0 0 C0.33 0.66 0.66 1.32 1 2 C0.67 2.99 0.34 3.98 0 5 C-3.3 5.66 -6.6 6.32 -10 7 C-6.72497903 4.54373427 -3.41548804 2.25111712 0 0 Z " fill="#66C45A" transform="translate(102,297)"/>
<path d="M0 0 C1.98 0.66 3.96 1.32 6 2 C4.515 4.475 4.515 4.475 3 7 C3.66 7.33 4.32 7.66 5 8 C4.01 8 3.02 8 2 8 C0.74335022 5.09399739 0 3.20395416 0 0 Z " fill="#62CC5D" transform="translate(248,257)"/>
<path d="M0 0 C3.96 0.33 7.92 0.66 12 1 C10 3 10 3 7.125 3.3125 C4 3 4 3 0 0 Z " fill="#6AC261" transform="translate(378,214)"/>
<path d="M0 0 C2.046875 3.71875 2.046875 3.71875 1.625 6.25 C1.41875 6.8275 1.2125 7.405 1 8 C0.34 8 -0.32 8 -1 8 C-1.33 8.99 -1.66 9.98 -2 11 C-3 9 -3 9 -2.44140625 6.8359375 C-2.15136719 6.02382812 -1.86132812 5.21171875 -1.5625 4.375 C-1.27503906 3.55773437 -0.98757812 2.74046875 -0.69140625 1.8984375 C-0.46324219 1.27195313 -0.23507813 0.64546875 0 0 Z " fill="#6AC963" transform="translate(28,209)"/>
<path d="M0 0 C1.46313772 0.76167457 2.92036661 1.53470707 4.375 2.3125 C5.18710938 2.74175781 5.99921875 3.17101562 6.8359375 3.61328125 C9 5 9 5 11 8 C10.01 8 9.02 8 8 8 C8 7.34 8 6.68 8 6 C6.02 5.34 4.04 4.68 2 4 C2 3.34 2 2.68 2 2 C1.34 2 0.68 2 0 2 C0 1.34 0 0.68 0 0 Z " fill="#71CF6B" transform="translate(181,158)"/>
<path d="M0 0 C1.65 0.33 3.3 0.66 5 1 C2.31158141 3.25245881 0.35358125 4.88213958 -3 6 C-3 5.34 -3 4.68 -3 4 C-2.34 4 -1.68 4 -1 4 C-0.67 2.68 -0.34 1.36 0 0 Z " fill="#62CD59" transform="translate(189,332)"/>
<path d="M0 0 C-1.32 2.31 -2.64 4.62 -4 7 C-4.12375 6.401875 -4.2475 5.80375 -4.375 5.1875 C-4.95475985 2.73768652 -4.95475985 2.73768652 -7 0 C-2.25 -1.125 -2.25 -1.125 0 0 Z " fill="#6DD069" transform="translate(474,257)"/>
<path d="M0 0 C2.64 0.33 5.28 0.66 8 1 C4.3558226 3.4294516 2.28758728 3.16179575 -2 3 C-1.34 2.01 -0.68 1.02 0 0 Z " fill="#60C65C" transform="translate(144,352)"/>
<path d="M0 0 C0.66 0.33 1.32 0.66 2 1 C1.67 3.31 1.34 5.62 1 8 C0.34 8 -0.32 8 -1 8 C-1.93065133 5.39417629 -2.14917407 4.35801776 -1.0625 1.75 C-0.711875 1.1725 -0.36125 0.595 0 0 Z " fill="#61C85F" transform="translate(435,289)"/>
<path d="M0 0 C0.66 0.66 1.32 1.32 2 2 C0.71034824 3.37562854 -0.62689293 4.70766393 -2 6 C-2.66 6 -3.32 6 -4 6 C-4.33 5.01 -4.66 4.02 -5 3 C-3.35 2.01 -1.7 1.02 0 0 Z " fill="#5CC856" transform="translate(301,267)"/>
<path d="M0 0 C1.32 1.32 2.64 2.64 4 4 C2.02 4.99 2.02 4.99 0 6 C-0.66 5.01 -1.32 4.02 -2 3 C-1.34 2.01 -0.68 1.02 0 0 Z " fill="#3DC934" transform="translate(331,259)"/>
<path d="M0 0 C2.64465038 3.1254959 3.84414715 6.08788267 5 10 C3.0625 8.9375 3.0625 8.9375 1 7 C0.25 3.3125 0.25 3.3125 0 0 Z " fill="#64C25E" transform="translate(220,198)"/>
<path d="M0 0 C1.65 0.99 3.3 1.98 5 3 C4.01 5.31 3.02 7.62 2 10 C0.56911472 7.13822943 1.40008303 5.06624227 2 2 C1.34 2 0.68 2 0 2 C0 1.34 0 0.68 0 0 Z " fill="#6DC467" transform="translate(432,193)"/>
<path d="M0 0 C2.31 0 4.62 0 7 0 C6.67 0.66 6.34 1.32 6 2 C4.68 2 3.36 2 2 2 C1.67 2.99 1.34 3.98 1 5 C0.67 5 0.34 5 0 5 C0 3.35 0 1.7 0 0 Z " fill="#58BB4F" transform="translate(315,193)"/>
<path d="M0 0 C0.66 0 1.32 0 2 0 C2 1.32 2 2.64 2 4 C-0.97 4 -3.94 4 -7 4 C-7 3.67 -7 3.34 -7 3 C-6.21625 2.87625 -5.4325 2.7525 -4.625 2.625 C-1.85942178 2.20882007 -1.85942178 2.20882007 0 0 Z " fill="#5AC851" transform="translate(75,301)"/>
<path d="M0 0 C1.32 0 2.64 0 4 0 C2.95125002 2.62187494 2.35068687 3.79371361 -0.125 5.25 C-0.74375 5.4975 -1.3625 5.745 -2 6 C-2 5.01 -2 4.02 -2 3 C-1.01 3 -0.02 3 1 3 C0.67 2.01 0.34 1.02 0 0 Z " fill="#5DC557" transform="translate(363,268)"/>
<path d="M0 0 C2.50037734 2.17424117 3.43628586 3.73045798 4 7 C3.34 7 2.68 7 2 7 C2 6.34 2 5.68 2 5 C0.68 4.34 -0.64 3.68 -2 3 C-1.34 3 -0.68 3 0 3 C0 2.01 0 1.02 0 0 Z " fill="#5AC454" transform="translate(367,234)"/>
<path d="M0 0 C2.13093906 1.06546953 3.36587557 2.29159719 5 4 C2.69 4 0.38 4 -2 4 C-2 3.01 -2 2.02 -2 1 C-1.34 0.67 -0.68 0.34 0 0 Z " fill="#46C73E" transform="translate(385,211)"/>
</svg>
