<?xml version="1.0" encoding="UTF-8"?>
<svg version="1.1" xmlns="http://www.w3.org/2000/svg" width="500" height="261">
<path d="M0 0 C1.74216797 0.57814453 1.74216797 0.57814453 3.51953125 1.16796875 C29.90795431 10.66042827 51.68921099 30.31152754 63.9921875 55.4453125 C70.046885 68.65503787 73.04963403 82.56056865 74 97 C74.05929688 97.88429688 74.11859375 98.76859375 74.1796875 99.6796875 C75.078479 129.33980698 62.75730517 157.03788552 42.6640625 178.4375 C38.12615343 182.8024096 33.1743906 186.43028244 28 190 C27.17371094 190.60457031 26.34742188 191.20914063 25.49609375 191.83203125 C3.49949943 207.08162637 -25.50083015 211.83774743 -51.62597656 207.46142578 C-80.37169974 201.87427885 -104.63978781 185.98894535 -121.390625 161.98828125 C-133.46091409 143.98446425 -139.43105735 123.38671564 -139.3125 101.75 C-139.30686035 100.65953369 -139.3012207 99.56906738 -139.29541016 98.44555664 C-138.92427117 73.60312954 -129.7629206 49.51932956 -113 31 C-112.236875 30.13246094 -111.47375 29.26492187 -110.6875 28.37109375 C-83.51980295 -0.7430694 -37.91352733 -12.80467865 0 0 Z M-70 17 C-70 62.87 -70 108.74 -70 156 C-61.30322852 153.10107617 -57.16030166 150.2646913 -52.9453125 142.0859375 C-51.35914394 138.58587959 -50.87577183 135.88636154 -50.87974548 132.08357239 C-50.87837082 131.06974991 -50.87699615 130.05592743 -50.87557983 129.01138306 C-50.87917511 127.90008026 -50.88277039 126.78877747 -50.88647461 125.64379883 C-50.88632858 124.47293228 -50.88618256 123.30206573 -50.8860321 122.09571838 C-50.88660975 118.88523724 -50.89162802 115.67479957 -50.89860606 112.4643271 C-50.90485369 109.10908843 -50.90544452 105.75384893 -50.90663147 102.39860535 C-50.90974062 96.04507247 -50.91794842 89.69155678 -50.92798096 83.33803147 C-50.93915499 76.10472827 -50.9446558 68.87142425 -50.94967639 61.63811457 C-50.96013136 46.75873347 -50.97772278 31.87936845 -51 17 C-57.44617404 15.48068146 -57.44617404 15.48068146 -70 17 Z M-112 47 C-112.045201 58.76129916 -112.08188753 70.52254054 -112.10362434 82.28390694 C-112.11405739 87.74529373 -112.12820795 93.20661796 -112.15087891 98.66796875 C-112.1726242 103.93937672 -112.18457224 109.21072455 -112.18975449 114.48217392 C-112.1934472 116.49238914 -112.20065812 118.5026011 -112.21146011 120.51279068 C-112.22599733 123.33037659 -112.22797699 126.1477146 -112.22705078 128.96533203 C-112.23424133 129.79467758 -112.24143188 130.62402313 -112.24884033 131.47850037 C-112.22301821 138.747429 -110.69408234 143.94797741 -105.78125 149.390625 C-99.73027239 154.85773635 -92.91836197 156.15227619 -85 156 C-85.78375 155.4225 -86.5675 154.845 -87.375 154.25 C-90.34620172 151.70325567 -91.76725172 149.84050151 -92.26171303 145.93045425 C-92.26724379 145.1893327 -92.27277454 144.44821114 -92.2784729 143.68463135 C-92.28963638 142.82930313 -92.30079987 141.97397491 -92.31230164 141.09272766 C-92.31446182 140.16268417 -92.31662201 139.23264069 -92.31884766 138.27441406 C-92.32889328 137.28871933 -92.3389389 136.3030246 -92.34928894 135.28746033 C-92.38017369 132.0301878 -92.39717094 128.77299767 -92.4140625 125.515625 C-92.43276987 123.25688973 -92.45234296 120.99816149 -92.4727478 118.73944092 C-92.52412041 112.79486221 -92.56371879 106.85026082 -92.60089111 100.90557861 C-92.64089854 94.83933887 -92.69200577 88.77319385 -92.7421875 82.70703125 C-92.83900762 70.80474735 -92.92236726 58.90242453 -93 47 C-99.27 47 -105.54 47 -112 47 Z M-28 47 C-27.54625 48.44375 -27.0925 49.8875 -26.625 51.375 C-22.19718963 66.35820666 -22.36339132 79.62553334 -25.5 94.9375 C-28.7092935 112.06975981 -27.91806505 125.09292012 -24.79956055 142.22241211 C-22.41259355 155.63965177 -21.30224782 167.2849151 -26.125 180.36328125 C-27.20997467 183.16971738 -27.20997467 183.16971738 -27 187 C-24.22813012 187.10787818 -21.46044463 187.18723327 -18.6875 187.25 C-17.50897461 187.30027344 -17.50897461 187.30027344 -16.30664062 187.3515625 C-11.80522319 187.53962761 -11.80522319 187.53962761 -8.09375 185.33203125 C-0.50032964 169.14177428 -2.25704713 153.81900562 -5.5 136.75 C-9.03358929 118.15125443 -7.70372876 102.75854021 -3.38671875 84.390625 C-1.21946741 70.99307128 -3.72468879 59.3090595 -9 47 C-15.27 47 -21.54 47 -28 47 Z M21 47 C21.59717864 54.12142913 21.59717864 54.12142913 22.9375 61.125 C25.93600528 73.96414829 26.29937715 86.85094852 26.20581055 99.96728516 C26.18728181 102.65667002 26.18530357 105.34571346 26.18554688 108.03515625 C26.18063911 109.76562796 26.17481406 111.49609737 26.16796875 113.2265625 C26.16685593 114.02035309 26.1657431 114.81414368 26.16459656 115.63198853 C26.12852535 119.86527397 25.8215366 123.83039212 25 128 C24.87689453 128.71768555 24.75378906 129.43537109 24.62695312 130.17480469 C24.51287109 130.83383789 24.39878906 131.49287109 24.28125 132.171875 C22.9225528 140.10377542 21.64745966 147.97150017 21 156 C27.32629569 156.90375653 32.67370431 156.90375653 39 156 C49.4747908 123.19316789 49.89720726 79.69162177 39 47 C33.06 47 27.12 47 21 47 Z " fill="#49C944" transform="translate(160,31)"/>
<path d="M0 0 C0.66 0.99 1.32 1.98 2 3 C0.02 6.96 -1.96 10.92 -4 15 C-6.97 14.67 -9.94 14.34 -13 14 C-13.33 19.94 -13.66 25.88 -14 32 C-6.41 32 1.18 32 9 32 C10.60875 34.84625 12.2175 37.6925 13.875 40.625 C14.3788623 41.51010254 14.88272461 42.39520508 15.40185547 43.30712891 C17.72641416 47.45659224 19.70244411 51.39143943 21 56 C21.66 56 22.32 56 23 56 C23.5259375 54.205625 23.5259375 54.205625 24.0625 52.375 C26.11786521 46.15925786 29.30253514 36.69746486 34 32 C35.4887186 31.91330568 36.981445 31.89296506 38.47265625 31.90234375 C39.37177734 31.90556641 40.27089844 31.90878906 41.19726562 31.91210938 C42.61555664 31.92467773 42.61555664 31.92467773 44.0625 31.9375 C45.4865918 31.94426758 45.4865918 31.94426758 46.93945312 31.95117188 C49.29303065 31.9629989 51.64648477 31.97947975 54 32 C47.36850519 49.31914664 37.46551055 65.75147471 28.9274292 82.21154785 C28.06564684 83.87340679 27.2048998 85.5358025 26.34423828 87.19824219 C24.96290266 89.86356645 23.57654338 92.52618651 22.1875 95.1875 C21.79771973 95.9400708 21.40793945 96.6926416 21.00634766 97.46801758 C17.02578635 105.05679966 17.02578635 105.05679966 15 107 C8.4699647 108.45602139 1.53894024 108.3686154 -5 107 C-3.7365983 102.94534466 -2.23453696 99.27578611 -0.25 95.5234375 C0.2759375 94.523125 0.801875 93.5228125 1.34375 92.4921875 C1.8903125 91.46351563 2.436875 90.43484375 3 89.375 C4.0835158 87.32040872 5.16685623 85.26572494 6.25 83.2109375 C6.72953125 82.30649902 7.2090625 81.40206055 7.703125 80.47021484 C8.13109375 79.65504395 8.5590625 78.83987305 9 78 C9.44512939 77.35192383 9.89025879 76.70384766 10.34887695 76.03613281 C11.27533373 73.87065093 11.27533373 73.87065093 9.95776367 71.28271484 C9.36713135 70.26902832 8.77649902 69.2553418 8.16796875 68.2109375 C7.53439453 67.10492188 6.90082031 65.99890625 6.24804688 64.859375 C5.56160372 63.69767678 4.87474999 62.53622108 4.1875 61.375 C3.51088797 60.20658602 2.83573952 59.03732318 2.16210938 57.8671875 C0.92557149 55.72668916 -0.3177058 53.59006122 -1.56958008 51.45849609 C-2.42080537 49.99547532 -3.24303048 48.51393904 -4 47 C-7.3 46.67 -10.6 46.34 -14 46 C-14 57.88 -14 69.76 -14 82 C-19.94 82 -25.88 82 -32 82 C-32 70.12 -32 58.24 -32 46 C-34.31 46 -36.62 46 -39 46 C-40.54799337 41.35601989 -40.49594333 36.67482292 -39 32 C-36.69 32 -34.38 32 -32 32 C-32.03480469 30.7934375 -32.06960938 29.586875 -32.10546875 28.34375 C-32.13362984 26.72918072 -32.16092749 25.11459621 -32.1875 23.5 C-32.21263672 22.70851563 -32.23777344 21.91703125 -32.26367188 21.1015625 C-32.35948036 13.30913871 -30.59240778 6.75689036 -25 1 C-17.21669976 -4.44831017 -8.42701409 -4.17059964 0 0 Z " fill="#4BC946" transform="translate(435,77)"/>
<path d="M0 0 C6.27 0 12.54 0 19 0 C19.01458252 1.60439941 19.02916504 3.20879883 19.04418945 4.86181641 C19.10222027 10.82200253 19.1794539 16.78181277 19.26245117 22.74169922 C19.29567781 25.3197621 19.32371673 27.89789733 19.34643555 30.47607422 C19.38002207 34.18488354 19.43234244 37.8930312 19.48828125 41.6015625 C19.49467117 42.75177887 19.5010611 43.90199524 19.50764465 45.08706665 C19.62490834 52.97475409 19.62490834 52.97475409 23 60 C27.27134065 62.84756044 30.9920972 62.48799053 36 62 C39.0745356 61.2236068 39.0745356 61.2236068 41 59 C43.16112922 52.35627979 43.33936532 46.00940258 43.4140625 39.0625 C43.43342865 37.94182129 43.4527948 36.82114258 43.4727478 35.66650391 C43.53220132 32.11107837 43.57879186 28.55561987 43.625 25 C43.66321127 22.5794135 43.7022648 20.15884013 43.7421875 17.73828125 C43.83787455 11.82563806 43.92302091 5.91291477 44 0 C46.97922593 -0.02683987 49.95821295 -0.04676037 52.9375 -0.0625 C54.21270508 -0.07506836 54.21270508 -0.07506836 55.51367188 -0.08789062 C56.32255859 -0.09111328 57.13144531 -0.09433594 57.96484375 -0.09765625 C58.7137085 -0.10289307 59.46257324 -0.10812988 60.23413086 -0.11352539 C62 0 62 0 63 1 C63.10393697 2.63470336 63.13852773 4.27387482 63.14526367 5.91186523 C63.15164352 6.96063339 63.15802338 8.00940155 63.16459656 9.08995056 C63.16570938 10.23460281 63.1668222 11.37925507 63.16796875 12.55859375 C63.17296135 14.31877586 63.17296135 14.31877586 63.17805481 16.11451721 C63.18313235 18.60881151 63.18546288 21.10311265 63.18530273 23.59741211 C63.18747278 27.38992812 63.20557413 31.18214554 63.22460938 34.97460938 C63.22754652 37.39843651 63.22952917 39.82226502 63.23046875 42.24609375 C63.23765427 43.37252792 63.24483978 44.4989621 63.25224304 45.65953064 C63.22005189 56.9297522 62.06369852 65.77888467 54.8125 74.6875 C45.48595694 82.35599096 34.14146376 82.88512586 22.5390625 81.76171875 C15.34336245 80.51193927 9.86129234 76.71069801 4.625 71.75 C-0.32110085 63.37967549 -0.41154146 54.60477767 -0.29296875 45.1171875 C-0.28660149 43.17406174 -0.28660149 43.17406174 -0.28010559 41.19168091 C-0.26876378 37.78200245 -0.23939184 34.37272 -0.20599365 30.9631958 C-0.17505967 27.47030999 -0.16155093 23.97735891 -0.14648438 20.484375 C-0.1145091 13.65607296 -0.06183147 6.82809638 0 0 Z " fill="#4ECA48" transform="translate(247,79)"/>
<path d="M0 0 C5.61 0 11.22 0 17 0 C17.8594396 8.10038739 18.12450729 16.04546604 18.0625 24.1875 C18.05798828 25.33025391 18.05347656 26.47300781 18.04882812 27.65039062 C18.03718268 30.4336511 18.02082997 33.21679572 18 36 C18.86902954 35.57448853 18.86902954 35.57448853 19.75561523 35.14038086 C27.57507453 31.46106257 34.88556355 30.44949645 43.3125 33.0625 C49.49511314 35.83889176 53.61645644 40.53748495 56.4375 46.625 C59.09824069 54.19256117 59.39616662 62.46118175 56.3125 69.9375 C52.82344799 76.59841747 48.76677934 80.67812651 42 84 C34.50638266 86.26760765 28.01649465 85.14532519 21 82 C19.515 81.01 19.515 81.01 18 80 C17.67 80.99 17.34 81.98 17 83 C11.39 83 5.78 83 0 83 C0 55.61 0 28.22 0 0 Z M18.0625 52.125 C16.51678847 56.30751354 16.64229201 59.75812135 18 64 C20.67853863 67.28120982 22.13575075 68.60356035 26.22265625 69.47265625 C30.62823998 69.75949726 32.45634946 69.43039001 36 66.625 C39.13200784 62.51423972 39.35197606 60.19164686 39 55 C37.20867493 50.85166825 35.10966469 48.85913402 31 47 C25.72895388 46.18906983 21.60039946 48.24472317 18.0625 52.125 Z " fill="#47C842" transform="translate(315,76)"/>
<path d="M0 0 C5.61 0 11.22 0 17 0 C17 16.5 17 33 17 50 C11.39 50 5.78 50 0 50 C0 33.5 0 17 0 0 Z " fill="#48C744" transform="translate(376,109)"/>
<path d="M0 0 C2.87029869 1.79393668 4.49131638 2.98263276 6 6 C6.68128376 12.81283762 6.68128376 12.81283762 4.953125 15.82421875 C2.2637801 19.09098182 0.4656668 20.83344695 -3.75 21.3125 C-7.85767229 20.91753151 -9.82926614 19.5942368 -13 17 C-15.35062814 13.794598 -15.39807915 10.90117562 -15 7 C-11.68933924 0.06337746 -7.20314329 -1.06151585 0 0 Z " fill="#57CB52" transform="translate(389,79)"/>
<path d="M0 0 C0.66 0 1.32 0 2 0 C2.06058594 0.91523437 2.12117187 1.83046875 2.18359375 2.7734375 C2.26738281 3.96195312 2.35117188 5.15046875 2.4375 6.375 C2.51871094 7.55835937 2.59992188 8.74171875 2.68359375 9.9609375 C2.81084936 12.91518901 2.81084936 12.91518901 4 15 C4.09445293 16.43960696 4.12793968 17.88347044 4.12939453 19.32617188 C4.13254669 20.22049927 4.13569885 21.11482666 4.13894653 22.03625488 C4.1369223 23.00397827 4.13489807 23.97170166 4.1328125 24.96875 C4.13376923 25.95999878 4.13472595 26.95124756 4.13571167 27.97253418 C4.13639293 30.07072005 4.13454243 32.16890801 4.13037109 34.26708984 C4.12502209 37.4867016 4.13031794 40.70617385 4.13671875 43.92578125 C4.13605796 45.96093781 4.13477678 47.99609428 4.1328125 50.03125 C4.13483673 50.99897339 4.13686096 51.96669678 4.13894653 52.96374512 C4.13579437 53.85807251 4.13264221 54.7523999 4.12939453 55.67382812 C4.12820114 56.85724792 4.12820114 56.85724792 4.12698364 58.0645752 C4 60 4 60 3 62 C2.68286275 65.63386433 2.48828964 69.26847692 2.28125 72.91015625 C2 76 2 76 1 77 C0.63239269 79.32817964 0.29758419 81.6618385 0 84 C0.66 84.33 1.32 84.66 2 85 C1.505 85.99 1.505 85.99 1 87 C0.01 87 -0.98 87 -2 87 C-2 88.65 -2 90.3 -2 92 C-2.66 92 -3.32 92 -4 92 C-3.88930176 91.42894531 -3.77860352 90.85789062 -3.66455078 90.26953125 C1.43485462 63.56796206 3.36873203 37.57731979 0.4375 10.546875 C0.06536254 7.01447647 -0.09296799 3.55602571 0 0 Z " fill="#A7DFA3" transform="translate(203,95)"/>
<path d="M0 0 C7.26 0 14.52 0 22 0 C23.33332095 2.6666419 22.67102033 4.16680303 22 7 C20 4 20 4 20 1 C14.06 1 8.12 1 2 1 C2.27714844 2.24394531 2.55429688 3.48789063 2.83984375 4.76953125 C4.74930408 13.48910814 6.59786561 22.05250981 7 31 C6.34 31.33 5.68 31.66 5 32 C4.86722656 31.00097656 4.73445312 30.00195312 4.59765625 28.97265625 C4.42105469 27.68230469 4.24445313 26.39195313 4.0625 25.0625 C3.88847656 23.77472656 3.71445313 22.48695312 3.53515625 21.16015625 C3.33837577 18.14533687 3.33837577 18.14533687 2 17 C1.59844616 15.46999194 1.25357238 13.92492529 0.9375 12.375 C0.76089844 11.53710938 0.58429688 10.69921875 0.40234375 9.8359375 C0 7 0 7 0 0 Z " fill="#9DDA99" transform="translate(179,77)"/>
<path d="M0 0 C5.61 0 11.22 0 17 0 C17.8594396 8.10038739 18.12450729 16.04546604 18.0625 24.1875 C18.05798828 25.33025391 18.05347656 26.47300781 18.04882812 27.65039062 C18.03718268 30.4336511 18.02082997 33.21679572 18 36 C19.98 35.34 21.96 34.68 24 34 C24 34.66 24 35.32 24 36 C21.36 36.66 18.72 37.32 16 38 C16 25.79 16 13.58 16 1 C10.72 1 5.44 1 0 1 C0 0.67 0 0.34 0 0 Z " fill="#80CF7A" transform="translate(315,76)"/>
<path d="M0 0 C2.72160588 4.08240882 1.62232209 7.00606325 0.75 11.5625 C0.60522217 12.36864746 0.46044434 13.17479492 0.3112793 14.00537109 C-0.11190032 16.33978287 -0.55210471 18.67021789 -1 21 C-1.21527344 22.12535156 -1.43054688 23.25070313 -1.65234375 24.41015625 C-2.08596297 26.60990339 -2.53989234 28.8056404 -3 31 C-1.35 31 0.3 31 2 31 C2 31.33 2 31.66 2 32 C0.02 32 -1.96 32 -4 32 C-4 29.69 -4 27.38 -4 25 C-4.66 24.67 -5.32 24.34 -6 24 C-6 20.38729533 -5.87424527 18.03319895 -3.49609375 15.22265625 C-1.65531893 12.48792813 -1.54239221 10.64355309 -1.375 7.375 C-1.081571 2.16314199 -1.081571 2.16314199 0 0 Z " fill="#8AD886" transform="translate(184,156)"/>
<path d="M0 0 C-3.63107451 2.42071634 -6.83297499 2.7314492 -11.0625 3.1875 C-11.85309814 3.27427002 -12.64369629 3.36104004 -13.45825195 3.45043945 C-24.35716004 4.4958647 -35.20307373 3.65562303 -46 2 C-46 1.67 -46 1.34 -46 1 C-44.99098633 1.01047363 -43.98197266 1.02094727 -42.94238281 1.03173828 C-39.19274453 1.06798497 -35.4431217 1.09091743 -31.69335938 1.10986328 C-30.07158808 1.11991023 -28.44983484 1.13355015 -26.828125 1.15087891 C-24.49474626 1.17518493 -22.1616074 1.18649613 -19.828125 1.1953125 C-19.10506165 1.20563507 -18.38199829 1.21595764 -17.63702393 1.22659302 C-10.799169 1.22811115 -6.97023301 -1.1617055 0 0 Z " fill="#A4DFA0" transform="translate(152,236)"/>
<path d="M0 0 C0.33 0 0.66 0 1 0 C1.19667089 2.52041311 1.38254317 5.04088272 1.5625 7.5625 C1.61857422 8.26697266 1.67464844 8.97144531 1.73242188 9.69726562 C2.05157754 14.31438431 1.80878035 18.4408752 1 23 C1.66 23.33 2.32 23.66 3 24 C3 24.66 3 25.32 3 26 C2.236875 26.268125 1.47375 26.53625 0.6875 26.8125 C-1.91229902 27.9612484 -3.10215992 28.9685876 -5 31 C-4.79503906 30.25234375 -4.59007812 29.5046875 -4.37890625 28.734375 C-4.10949219 27.74953125 -3.84007812 26.7646875 -3.5625 25.75 C-3.16224609 24.28820312 -3.16224609 24.28820312 -2.75390625 22.796875 C-2.38072266 21.41242188 -2.38072266 21.41242188 -2 20 C-1.82597656 19.36255859 -1.65195313 18.72511719 -1.47265625 18.06835938 C-0.69744573 14.67601251 -0.62421345 11.21491197 -0.4375 7.75 C-0.37272461 6.63238281 -0.37272461 6.63238281 -0.30664062 5.4921875 C-0.20103275 3.661651 -0.10005799 1.83084824 0 0 Z " fill="#98DB93" transform="translate(157,185)"/>
<path d="M0 0 C0.625 1.8125 0.625 1.8125 1 4 C0.01 5.485 0.01 5.485 -1 7 C-1.33 8.98 -1.66 10.96 -2 13 C2.95 13.33 7.9 13.66 13 14 C13 14.33 13 14.66 13 15 C-0.6332574 16.33257403 -0.6332574 16.33257403 -7 15 C-5.45454854 9.52067211 -2.84456788 4.88570819 0 0 Z " fill="#74C56F" transform="translate(437,169)"/>
<path d="M0 0 C1.32 0 2.64 0 4 0 C4.33 1.32 4.66 2.64 5 4 C7.31 3.34 9.62 2.68 12 2 C12 2.66 12 3.32 12 4 C13.32 4.66 14.64 5.32 16 6 C12.46569344 8.35620437 11.16428713 8.48991613 7 8 C1.40633245 5.04485488 1.40633245 5.04485488 0.125 1.75 C0.08375 1.1725 0.0425 0.595 0 0 Z " fill="#76D170" transform="translate(375,92)"/>
<path d="M0 0 C1.0828125 0.495 1.0828125 0.495 2.1875 1 C5.01697427 2.00603529 7.02895466 2.16977402 10 2 C10.33 2.66 10.66 3.32 11 4 C9.625 6 9.625 6 8 8 C7.34 8 6.68 8 6 8 C6 11.3 6 14.6 6 18 C5.01 18 4.02 18 3 18 C3.165 17.484375 3.33 16.96875 3.5 16.4375 C4.41849463 11.95983866 4.67244865 8.3156604 2.5625 4.1875 C2.046875 3.465625 1.53125 2.74375 1 2 C0.67 1.34 0.34 0.68 0 0 Z " fill="#7AD576" transform="translate(349,124)"/>
<path d="M0 0 C0.87840996 3.09720845 0.99435406 4.90645403 0 8 C-0.66 8 -1.32 8 -2 8 C-2.433125 9.6396875 -2.433125 9.6396875 -2.875 11.3125 C-4 15 -4 15 -6 18 C-6 19.32 -6 20.64 -6 22 C-7.32 22.33 -8.64 22.66 -10 23 C-7.60292686 14.82175048 -3.91141228 7.53348722 0 0 Z " fill="#85D37F" transform="translate(468,110)"/>
<path d="M0 0 C2.31 0 4.62 0 7 0 C5.39369175 4.24292532 3.4231838 8.27025107 1.375 12.3125 C0.88773437 13.28026367 0.88773437 13.28026367 0.390625 14.26757812 C-0.40441956 15.84597541 -1.20195634 17.42311694 -2 19 C-2.33 19 -2.66 19 -3 19 C-3 17.35 -3 15.7 -3 14 C-2.34 14 -1.68 14 -1 14 C-0.7834375 12.576875 -0.7834375 12.576875 -0.5625 11.125 C0 8 0 8 1 6 C1.66 6 2.32 6 3 6 C3 4.68 3 3.36 3 2 C2.01 2 1.02 2 0 2 C0 1.34 0 0.68 0 0 Z " fill="#6ECE6A" transform="translate(478,117)"/>
<path d="M0 0 C0 0.33 0 0.66 0 1 C-4.95 1 -9.9 1 -15 1 C-15 2.65 -15 4.3 -15 6 C-17.31 5.67 -19.62 5.34 -22 5 C-16.07425722 -1.83739552 -8.40225741 -2.03691089 0 0 Z " fill="#98DC93" transform="translate(431,75)"/>
<path d="M0 0 C1 2 1 2 0.0625 5.125 C-0.288125 6.07375 -0.63875 7.0225 -1 8 C-2.32 8 -3.64 8 -5 8 C-6.04892238 9.63631892 -7.04906703 11.30485863 -8 13 C-8.99 13.33 -9.98 13.66 -11 14 C-9.61085525 9.70281047 -7.61968015 7.29312243 -4.375 4.1875 C-3.55773438 3.39730469 -2.74046875 2.60710938 -1.8984375 1.79296875 C-0.95871094 0.90544922 -0.95871094 0.90544922 0 0 Z " fill="#84D47E" transform="translate(53,56)"/>
<path d="M0 0 C1.72357119 2.58535679 2.44735018 4.03811614 3.1875 6.9375 C3.36667969 7.60652344 3.54585937 8.27554688 3.73046875 8.96484375 C4.03268678 11.24680888 3.68756692 12.82026659 3 15 C3 14.34 3 13.68 3 13 C2.360625 12.79375 1.72125 12.5875 1.0625 12.375 C-1 11 -1 11 -1.875 8.1875 C-2.0063445 4.83821527 -1.48399085 2.9679817 0 0 Z " fill="#70D26A" transform="translate(228,100)"/>
<path d="M0 0 C-0.33 1.65 -0.66 3.3 -1 5 C-1.763125 4.835 -2.52625 4.67 -3.3125 4.5 C-6.03596236 3.90854604 -6.03596236 3.90854604 -9 4 C-10.32 4 -11.64 4 -13 4 C-13 3.01 -13 2.02 -13 1 C-11.39602723 0.83147753 -9.7918131 0.66525114 -8.1875 0.5 C-7.29417969 0.4071875 -6.40085937 0.314375 -5.48046875 0.21875 C-3 0 -3 0 0 0 Z " fill="#3CC936" transform="translate(392,92)"/>
<path d="M0 0 C1.65 0 3.3 0 5 0 C5 1.98 5 3.96 5 6 C4.34 6 3.68 6 3 6 C3 11.28 3 16.56 3 22 C2.67 22 2.34 22 2 22 C1.66505928 18.7084948 1.33232064 15.41677068 1 12.125 C0.90460938 11.18785156 0.80921875 10.25070313 0.7109375 9.28515625 C0.62070313 8.38925781 0.53046875 7.49335938 0.4375 6.5703125 C0.35371094 5.74289551 0.26992187 4.91547852 0.18359375 4.06298828 C0 2 0 2 0 0 Z " fill="#72D56E" transform="translate(154,160)"/>
<path d="M0 0 C-6.23352988 4.15568659 -13.76791678 3.1053216 -21 3 C-21 2.67 -21 2.34 -21 2 C-13.61793513 -0.48407886 -7.69766007 -1.38591277 0 0 Z " fill="#96DA8F" transform="translate(293,158)"/>
<path d="M0 0 C0 0.99 0 1.98 0 3 C-0.598125 3.0825 -1.19625 3.165 -1.8125 3.25 C-4.15070487 3.82087979 -4.15070487 3.82087979 -5.4375 5.9375 C-7.37933347 8.50072018 -8.99319705 8.9732868 -12 10 C-13.34050052 10.65213539 -14.67661368 11.31379969 -16 12 C-12.93472671 7.40209007 -5.92699097 0 0 0 Z " fill="#8CD887" transform="translate(70,44)"/>
<path d="M0 0 C6.93 0 13.86 0 21 0 C22.33332095 2.6666419 21.67102033 4.16680303 21 7 C19 4 19 4 19 1 C13.06 1 7.12 1 1 1 C0.67 2.32 0.34 3.64 0 5 C0 3.35 0 1.7 0 0 Z " fill="#CBEAC7" transform="translate(180,77)"/>
<path d="M0 0 C1.98 0 3.96 0 6 0 C4.74194623 4.50802601 3.09592835 7.4912812 0 11 C-0.66 9.68 -1.32 8.36 -2 7 C-0.68 5.68 0.64 4.36 2 3 C1.34 2.01 0.68 1.02 0 0 Z " fill="#71D36D" transform="translate(467,140)"/>
<path d="M0 0 C2.49552403 2.27597646 4.06622986 4.60721178 5.6875 7.5625 C6.12449219 8.34753906 6.56148437 9.13257812 7.01171875 9.94140625 C8 12 8 12 8 14 C6.35 13.67 4.7 13.34 3 13 C3 11.02 3 9.04 3 7 C2.34 7 1.68 7 1 7 C0.67 4.69 0.34 2.38 0 0 Z " fill="#86D783" transform="translate(215,73)"/>
<path d="M0 0 C0.86625 0.3403125 0.86625 0.3403125 1.75 0.6875 C1.42 1.3475 1.09 2.0075 0.75 2.6875 C1.41 2.6875 2.07 2.6875 2.75 2.6875 C2.75 1.6975 2.75 0.7075 2.75 -0.3125 C3.41 -0.3125 4.07 -0.3125 4.75 -0.3125 C4.09 1.6675 3.43 3.6475 2.75 5.6875 C-0.22 5.3575 -3.19 5.0275 -6.25 4.6875 C-6.25 4.0275 -6.25 3.3675 -6.25 2.6875 C-3.02697842 -0.42041367 -3.02697842 -0.42041367 0 0 Z " fill="#6ECD69" transform="translate(428.25,86.3125)"/>
<path d="M0 0 C0.54398437 0.48726562 1.08796875 0.97453125 1.6484375 1.4765625 C4.51757265 3.33530454 6.23351377 3.40242442 9.625 3.375 C11.06746094 3.38660156 11.06746094 3.38660156 12.5390625 3.3984375 C13.35117187 3.26695312 14.16328125 3.13546875 15 3 C15.66 2.01 16.32 1.02 17 0 C17 1.65 17 3.3 17 5 C11.39 5 5.78 5 0 5 C0 3.35 0 1.7 0 0 Z " fill="#67C863" transform="translate(315,154)"/>
<path d="M0 0 C1.32 0.33 2.64 0.66 4 1 C4 2.98 4 4.96 4 7 C5.65 7 7.3 7 9 7 C8.67 7.99 8.34 8.98 8 10 C4.12539202 8.74337038 2.0139745 7.60395437 0 4 C0 2.68 0 1.36 0 0 Z " fill="#5EC85A" transform="translate(330,148)"/>
<path d="M0 0 C0.598125 0.78375 1.19625 1.5675 1.8125 2.375 C5.50844069 6.81012882 8.42479034 7.36884419 14 8 C14 8.33 14 8.66 14 9 C12.04233719 9.08082094 10.08373272 9.13910778 8.125 9.1875 C7.03445313 9.22230469 5.94390625 9.25710937 4.8203125 9.29296875 C3.88960938 9.19628906 2.95890625 9.09960938 2 9 C-0.29013653 5.5647952 -0.17842973 4.014669 0 0 Z " fill="#A2E09D" transform="translate(332,137)"/>
<path d="M0 0 C0.763125 0.474375 1.52625 0.94875 2.3125 1.4375 C4.96410548 3.10106097 4.96410548 3.10106097 8 4 C7.67 6.64 7.34 9.28 7 12 C0 3.55172414 0 3.55172414 0 0 Z " fill="#80D87A" transform="translate(439,137)"/>
<path d="M0 0 C1.24403138 2.48806276 1.06732288 4.23976186 1 7 C1 7.99 1 8.98 1 10 C-2 10 -2 10 -4 9 C-2.94124926 5.59687262 -1.99097846 2.98646769 0 0 Z " fill="#76D572" transform="translate(35,79)"/>
<path d="M0 0 C1.46313772 0.76167457 2.92036661 1.53470707 4.375 2.3125 C5.18710938 2.74175781 5.99921875 3.17101563 6.8359375 3.61328125 C9 5 9 5 11 8 C9.35 8.33 7.7 8.66 6 9 C5.71125 8.360625 5.4225 7.72125 5.125 7.0625 C4.17176549 4.84793921 4.17176549 4.84793921 2 4 C2 3.34 2 2.68 2 2 C1.34 2 0.68 2 0 2 C0 1.34 0 0.68 0 0 Z " fill="#91DA8C" transform="translate(181,41)"/>
<path d="M0 0 C0.66 1.32 1.32 2.64 2 4 C0.75579353 4.5345256 -0.49570936 5.05208611 -1.75 5.5625 C-2.44609375 5.85253906 -3.1421875 6.14257812 -3.859375 6.44140625 C-6 7 -6 7 -10 6 C-6.7 4.02 -3.4 2.04 0 0 Z " fill="#8CD788" transform="translate(102,180)"/>
<path d="M0 0 C2.29013653 3.4352048 2.17842973 4.985331 2 9 C0.02 9.66 -1.96 10.32 -4 11 C-3.67 9.35 -3.34 7.7 -3 6 C-2.34 6 -1.68 6 -1 6 C-0.67 4.02 -0.34 2.04 0 0 Z " fill="#3DC838" transform="translate(469,112)"/>
<path d="M0 0 C-0.125 1.75 -0.125 1.75 -1 4 C-4.0625 6.25 -4.0625 6.25 -7 8 C-7 7.34 -7 6.68 -7 6 C-7.66 5.67 -8.32 5.34 -9 5 C-8.01 4.67 -7.02 4.34 -6 4 C-5.34 4.33 -4.68 4.66 -4 5 C-4 3.68 -4 2.36 -4 1 C-2 0 -2 0 0 0 Z " fill="#74D66C" transform="translate(197,211)"/>
<path d="M0 0 C2.50356732 3.75535098 1.9608592 4.86889414 1.125 9.1875 C0.92132813 10.27417969 0.71765625 11.36085937 0.5078125 12.48046875 C0.34023437 13.31191406 0.17265625 14.14335937 0 15 C-0.33 15 -0.66 15 -1 15 C-1.02693575 12.87506859 -1.04636628 10.75004088 -1.0625 8.625 C-1.07410156 7.44164062 -1.08570313 6.25828125 -1.09765625 5.0390625 C-1 2 -1 2 0 0 Z " fill="#9EDD97" transform="translate(184,156)"/>
<path d="M0 0 C0.95465783 2.16967689 1.14401212 3.56328793 0.3984375 5.82421875 C-0.35870385 7.5684743 -1.17609198 9.28627131 -2 11 C-2.99 11 -3.98 11 -5 11 C-3.77472971 6.94718288 -2.30119506 3.55639236 0 0 Z " fill="#8CD48A" transform="translate(437,169)"/>
<path d="M0 0 C2.475 0.99 2.475 0.99 5 2 C4.34 3.32 3.68 4.64 3 6 C2.34 5.67 1.68 5.34 1 5 C1 4.34 1 3.68 1 3 C-0.98 3.33 -2.96 3.66 -5 4 C-3.35 2.68 -1.7 1.36 0 0 Z " fill="#5DC955" transform="translate(353,141)"/>
<path d="M0 0 C0.66 0 1.32 0 2 0 C2 0.66 2 1.32 2 2 C3.32 2.33 4.64 2.66 6 3 C5.67 4.65 5.34 6.3 5 8 C5.66 8.33 6.32 8.66 7 9 C6.01 9 5.02 9 4 9 C2.68 6.03 1.36 3.06 0 0 Z " fill="#88D783" transform="translate(431,123)"/>
<path d="M0 0 C0.66 0 1.32 0 2 0 C1.41196203 3.02419525 0.77321882 6.01758453 0 9 C-1.32 9 -2.64 9 -4 9 C-4 8.34 -4 7.68 -4 7 C-3.01 7 -2.02 7 -1 7 C-1 6.34 -1 5.68 -1 5 C-1.66 4.67 -2.32 4.34 -3 4 C-1.68 3.67 -0.36 3.34 1 3 C0.67 2.01 0.34 1.02 0 0 Z " fill="#4FC847" transform="translate(132,208)"/>
<path d="M0 0 C0.33 0.66 0.66 1.32 1 2 C0.00390625 4.1640625 0.00390625 4.1640625 -1.4375 6.625 C-1.91058594 7.44226563 -2.38367188 8.25953125 -2.87109375 9.1015625 C-3.24363281 9.72804687 -3.61617188 10.35453125 -4 11 C-4.93423645 7.98968256 -5.04449911 7.13349732 -4 4 C-3.34 4 -2.68 4 -2 4 C-2 3.01 -2 2.02 -2 1 C-1.34 0.67 -0.68 0.34 0 0 Z " fill="#87D583" transform="translate(463,157)"/>
<path d="M0 0 C2.64 1.98 5.28 3.96 8 6 C7.34 6.66 6.68 7.32 6 8 C6 7.34 6 6.68 6 6 C5.34 6 4.68 6 4 6 C4 6.66 4 7.32 4 8 C3.34 7.67 2.68 7.34 2 7 C1.26924352 4.6859378 0.59861742 2.35171131 0 0 Z " fill="#90DC8B" transform="translate(51,177)"/>
<path d="M0 0 C0.66 0 1.32 0 2 0 C1.39301257 4.12751449 -0.03810791 7.3321148 -2 11 C-2.33 11 -2.66 11 -3 11 C-3 9.35 -3 7.7 -3 6 C-2.34 6 -1.68 6 -1 6 C-0.67 4.02 -0.34 2.04 0 0 Z " fill="#88D382" transform="translate(478,125)"/>
<path d="M0 0 C2.25 -0.3125 2.25 -0.3125 5 0 C7.3125 2.5 7.3125 2.5 9 5 C7.35 5.33 5.7 5.66 4 6 C4.33 4.68 4.66 3.36 5 2 C3.35 1.67 1.7 1.34 0 1 C0 0.67 0 0.34 0 0 Z " fill="#6CCF68" transform="translate(358,112)"/>
<path d="M0 0 C2.046875 3.71875 2.046875 3.71875 1.625 6.25 C1.41875 6.8275 1.2125 7.405 1 8 C0.34 8 -0.32 8 -1 8 C-1.33 8.99 -1.66 9.98 -2 11 C-3 9 -3 9 -2.44140625 6.8359375 C-2.15136719 6.02382812 -1.86132812 5.21171875 -1.5625 4.375 C-1.27503906 3.55773437 -0.98757812 2.74046875 -0.69140625 1.8984375 C-0.46324219 1.27195312 -0.23507813 0.64546875 0 0 Z " fill="#96DC92" transform="translate(28,92)"/>
<path d="M0 0 C-3.20380017 2.13586678 -4.01939967 2.23132175 -7.6875 2.125 C-8.89986328 2.09792969 -8.89986328 2.09792969 -10.13671875 2.0703125 C-11.05904297 2.03550781 -11.05904297 2.03550781 -12 2 C-8.15820154 -2.0018734 -5.05897886 -0.92747946 0 0 Z " fill="#85D482" transform="translate(152,236)"/>
<path d="M0 0 C1.32 0.33 2.64 0.66 4 1 C3 4 3 4 0.9375 5.1875 C0.298125 5.455625 -0.34125 5.72375 -1 6 C-1 5.34 -1 4.68 -1 4 C-1.66 3.67 -2.32 3.34 -3 3 C-2.34 3 -1.68 3 -1 3 C-0.67 2.01 -0.34 1.02 0 0 Z " fill="#6CD065" transform="translate(299,150)"/>
<path d="M0 0 C0 0.99 0 1.98 0 3 C-1 4 -1 4 -3.72265625 4.09765625 C-5.37587891 4.08025391 -5.37587891 4.08025391 -7.0625 4.0625 C-8.16722656 4.05347656 -9.27195312 4.04445312 -10.41015625 4.03515625 C-11.69212891 4.01775391 -11.69212891 4.01775391 -13 4 C-13 3.67 -13 3.34 -13 3 C-12.39671875 2.95101562 -11.7934375 2.90203125 -11.171875 2.8515625 C-10.37265625 2.77679688 -9.5734375 2.70203125 -8.75 2.625 C-7.56664062 2.52058594 -7.56664062 2.52058594 -6.359375 2.4140625 C-3.914123 1.98492887 -2.15163097 1.21399362 0 0 Z " fill="#A5DEA2" transform="translate(287,139)"/>
<path d="M0 0 C3.98175544 2.10148204 6.35039045 4.36905358 9 8 C6.625 7.75 6.625 7.75 4 7 C2.8125 5 2.8125 5 2 3 C1.34 2.67 0.68 2.34 0 2 C0 1.34 0 0.68 0 0 Z " fill="#A7E1A2" transform="translate(196,52)"/>
<path d="M0 0 C1.98 0.495 1.98 0.495 4 1 C2.25 5.875 2.25 5.875 0 7 C-1.125 2.25 -1.125 2.25 0 0 Z " fill="#71D56C" transform="translate(212,190)"/>
<path d="M0 0 C0.99 0.66 1.98 1.32 3 2 C2.67 2.66 2.34 3.32 2 4 C1.01 4 0.02 4 -1 4 C-1 5.65 -1 7.3 -1 9 C-1.66 9 -2.32 9 -3 9 C-2.69181644 7.68647977 -2.37832335 6.37420428 -2.0625 5.0625 C-1.88847656 4.33160156 -1.71445313 3.60070312 -1.53515625 2.84765625 C-1 1 -1 1 0 0 Z " fill="#80D67A" transform="translate(202,178)"/>
<path d="M0 0 C2.4375 1.1875 2.4375 1.1875 5 3 C5.8125 5.6875 5.8125 5.6875 6 8 C1.125 3.375 1.125 3.375 0 0 Z " fill="#92DC8E" transform="translate(250,146)"/>
<path d="M0 0 C1.32 0 2.64 0 4 0 C4.33 1.98 4.66 3.96 5 6 C3.0625 5.25 3.0625 5.25 1 4 C0.25 1.875 0.25 1.875 0 0 Z " fill="#83D47D" transform="translate(375,92)"/>
<path d="M0 0 C1.32 1.32 2.64 2.64 4 4 C2.02 4.99 2.02 4.99 0 6 C-0.66 5.01 -1.32 4.02 -2 3 C-1.34 2.01 -0.68 1.02 0 0 Z " fill="#3DC934" transform="translate(331,142)"/>
<path d="M0 0 C1.9375 0.625 1.9375 0.625 4 2 C4.75 5.125 4.75 5.125 5 8 C2.20127563 5.47211993 0.54226981 3.79588866 0 0 Z " fill="#89D987" transform="translate(35,185)"/>
<path d="M0 0 C0.99 0 1.98 0 3 0 C1.25 5.75 1.25 5.75 -1 8 C-0.67 5.36 -0.34 2.72 0 0 Z " fill="#85D382" transform="translate(305,142)"/>
<path d="M0 0 C1.6415049 3.2830098 0.51888624 6.42545033 0 10 C-1.32 10 -2.64 10 -4 10 C-4 9.34 -4 8.68 -4 8 C-3.34 7.67 -2.68 7.34 -2 7 C-1.26924352 4.6859378 -0.59861742 2.35171131 0 0 Z " fill="#6BCD68" transform="translate(332,129)"/>
<path d="M0 0 C1.32 0 2.64 0 4 0 C3.42655063 2.86724686 3.1385485 3.8614515 1 6 C1 5.34 1 4.68 1 4 C0.34 3.67 -0.32 3.34 -1 3 C-0.67 2.01 -0.34 1.02 0 0 Z " fill="#65C861" transform="translate(484,110)"/>
</svg>
