<?xml version="1.0" standalone="no"?>
<!DOCTYPE svg PUBLIC "-//W3C//DTD SVG 20010904//EN"
 "http://www.w3.org/TR/2001/REC-SVG-20010904/DTD/svg10.dtd">
<svg version="1.0" xmlns="http://www.w3.org/2000/svg"
 width="1024.000000pt" height="1024.000000pt" viewBox="0 0 1024.000000 1024.000000"
 preserveAspectRatio="xMidYMid meet">

<g transform="translate(0.000000,1024.000000) scale(0.100000,-0.100000)"
fill="#000000" stroke="none">
<path d="M0 5120 l0 -5120 5120 0 5120 0 0 5120 0 5120 -5120 0 -5120 0 0
-5120z m5483 3516 c237 -35 403 -81 622 -171 218 -89 415 -203 575 -332 83
-67 339 -338 341 -360 0 -5 4 -12 8 -18 26 -34 19 -40 -47 -42 -38 -1 -68 -7
-72 -14 -4 -6 -13 -8 -19 -5 -6 4 -8 12 -5 18 4 7 2 8 -4 4 -8 -5 -12 1 -12
15 0 12 -3 19 -7 15 -4 -3 -25 11 -47 31 -22 21 -9 3 29 -41 222 -260 420
-670 494 -1030 57 -270 63 -500 20 -754 -41 -244 -91 -404 -195 -620 -127
-264 -274 -465 -489 -668 -321 -302 -666 -479 -1120 -575 -179 -37 -397 -49
-566 -30 -315 36 -629 125 -869 246 -132 67 -359 227 -470 331 -87 83 -103 83
-22 1 34 -35 59 -67 55 -72 -4 -4 -3 -5 4 -1 6 3 24 -6 40 -20 15 -15 23 -24
17 -21 -7 4 -19 -5 -29 -19 -9 -15 -12 -23 -6 -20 6 4 11 5 11 2 0 -3 -9 -10
-20 -16 -15 -8 -28 -6 -57 10 -21 11 -33 20 -28 20 8 0 -9 17 -85 84 -8 7 -26
17 -40 21 -14 4 -34 15 -44 24 -16 13 -18 13 -12 1 4 -9 2 -8 -7 3 -8 9 -17
17 -21 17 -12 0 -35 27 -29 34 4 3 -3 6 -15 6 -30 0 -219 238 -293 370 -155
273 -232 461 -295 717 -45 187 -54 263 -54 478 -1 295 27 458 131 770 77 231
215 493 358 680 117 153 357 389 495 486 188 134 445 263 664 335 245 81 343
102 587 128 85 9 425 -3 528 -18z m111 -5340 c44 -33 66 -74 66 -118 -2 -102
-110 -179 -211 -149 -139 42 -159 204 -35 283 46 28 132 21 180 -16z m706 -12
c27 -8 50 -20 50 -27 -1 -32 -29 -219 -33 -224 -3 -3 -33 4 -66 16 -70 24 -93
26 -124 9 -36 -19 -46 -40 -47 -96 l0 -53 248 7 248 7 13 -44 c7 -24 37 -100
66 -169 30 -69 79 -190 109 -269 55 -142 62 -158 70 -150 2 2 17 49 34 104 17
55 49 147 72 205 23 58 53 134 66 170 14 36 31 81 40 101 l16 36 145 8 c79 4
147 5 149 2 3 -2 -25 -74 -62 -158 -109 -253 -200 -472 -291 -699 -97 -244
-118 -284 -175 -335 -106 -96 -209 -100 -404 -14 -41 18 -74 36 -74 39 0 4 18
46 40 93 22 47 40 90 40 96 0 17 19 13 53 -13 18 -13 49 -29 69 -37 47 -16 80
-1 115 52 l24 37 -44 103 c-134 311 -233 530 -298 666 l-74 152 3 -118 4 -118
-54 -6 c-29 -4 -76 -7 -104 -7 -50 0 -52 -1 -58 -31 -3 -17 -6 -168 -6 -335
l0 -304 -38 0 c-22 0 -80 -3 -130 -6 l-92 -7 0 234 c1 222 10 394 25 431 6 14
-1 17 -47 20 l-53 3 -3 75 c-2 41 0 98 3 127 l6 52 46 3 47 3 -3 65 c-3 90 26
167 82 216 124 106 245 133 397 88z m-1759 -214 c1 -126 3 -234 4 -240 1 -5 3
-13 4 -16 0 -4 17 6 36 20 170 130 419 114 568 -36 86 -87 127 -201 127 -359
0 -113 -38 -225 -108 -317 -43 -56 -139 -120 -214 -143 -131 -40 -260 -17
-356 64 -59 50 -70 48 -74 -10 l-3 -48 -123 -8 c-68 -5 -127 -6 -130 -2 -4 3
-8 303 -11 666 l-3 659 141 0 141 0 1 -230z m-396 37 c11 -253 1 -731 -18
-794 -39 -133 -130 -252 -232 -302 -217 -107 -525 -65 -679 93 -53 55 -115
172 -136 261 -8 33 -14 191 -17 470 l-5 420 150 1 151 1 3 -426 c3 -423 3
-426 27 -478 49 -109 150 -160 269 -135 76 16 125 50 153 109 l24 48 1 427 c1
235 4 434 7 442 5 12 30 16 124 19 65 1 130 4 144 5 l27 2 7 -163z m3391 -29
c14 -27 14 -31 -2 -49 -23 -25 -49 -32 -74 -19 -35 19 -22 89 20 102 24 8 40
-2 56 -34z m-5434 -139 c96 -20 171 -63 237 -136 70 -78 105 -138 126 -218 31
-121 15 -233 -53 -355 -49 -89 -113 -150 -206 -195 -68 -34 -89 -39 -164 -43
-112 -5 -190 9 -279 53 -124 61 -218 188 -249 338 -48 228 115 501 330 553 65
16 190 17 258 3z m3541 -276 c4 -141 7 -354 7 -474 l0 -218 -140 -3 -140 -3 0
300 c0 165 -3 377 -7 472 l-6 172 124 4 c68 1 131 4 140 5 14 2 17 -28 22
-255z"/>
<path d="M4935 8213 c-174 -22 -431 -90 -564 -148 -124 -55 -307 -163 -417
-246 -284 -215 -516 -534 -651 -894 -33 -89 -92 -347 -104 -450 -13 -119 -7
-363 12 -487 46 -305 186 -637 380 -899 327 -441 915 -744 1504 -775 329 -18
742 92 1057 279 255 153 508 410 670 682 134 226 223 472 264 735 25 155 23
451 -4 595 -113 618 -491 1135 -1028 1409 -185 94 -397 160 -617 191 -93 13
-420 19 -502 8z m570 -157 c256 -51 508 -161 704 -305 114 -85 243 -200 236
-211 -3 -5 0 -12 6 -16 8 -5 10 -2 4 7 -4 8 4 1 19 -15 29 -33 31 -37 14 -33
-7 1 -12 -5 -12 -14 1 -11 -5 -15 -17 -12 -11 3 -19 9 -19 14 0 5 -9 9 -20 9
-15 0 -20 -7 -20 -25 0 -16 6 -25 16 -25 10 0 14 -6 11 -14 -3 -8 -1 -17 6
-19 22 -7 -13 -38 -36 -31 -14 4 -26 -2 -43 -21 -26 -30 -30 -40 -14 -30 6 3
10 1 10 -6 0 -6 -8 -9 -20 -6 -11 3 -20 1 -20 -4 0 -10 -93 -12 -103 -2 -9 8
-21 9 -178 19 -203 11 -360 -16 -582 -102 -153 -59 -318 -157 -502 -298 -140
-108 -188 -138 -290 -187 -169 -81 -359 -114 -510 -90 -165 25 -373 133 -469
243 -48 54 -111 171 -122 226 -16 82 249 420 465 592 108 86 179 130 316 196
202 97 398 157 570 173 136 13 512 5 600 -13z m1001 -613 c-10 -10 -19 5 -10
18 6 11 8 11 12 0 2 -7 1 -15 -2 -18z m-286 -292 c141 -33 234 -66 340 -123
185 -98 321 -211 356 -294 16 -37 44 -170 44 -205 0 -32 -19 -22 -89 44 -36
34 -113 94 -171 133 -369 251 -752 317 -1122 194 -168 -56 -333 -153 -576
-337 -505 -382 -1032 -374 -1472 22 -93 84 -140 160 -140 227 0 32 35 148 45
148 2 0 66 -62 142 -138 146 -146 204 -186 372 -258 117 -51 204 -66 346 -62
101 3 137 9 225 37 142 45 293 124 425 223 202 152 253 187 362 246 165 90
297 136 458 161 104 17 348 7 455 -18z m-35 -356 c192 -30 355 -108 557 -268
95 -74 149 -131 202 -211 l33 -51 -10 -92 c-6 -51 -14 -93 -18 -93 -4 0 -24
19 -45 43 -106 119 -358 300 -514 369 -151 66 -263 91 -425 92 -285 2 -480
-70 -790 -293 -314 -226 -398 -273 -591 -334 -188 -60 -430 -62 -614 -7 -210
63 -391 171 -543 324 -39 39 -76 85 -84 103 -8 20 -13 70 -13 128 0 84 2 95
18 95 9 0 70 -49 134 -109 134 -124 206 -175 333 -236 175 -83 308 -115 473
-115 109 1 210 22 337 69 152 58 236 105 415 236 214 155 287 201 419 262 223
102 451 130 726 88z m37 -384 c133 -33 268 -98 383 -184 90 -66 241 -217 287
-287 l36 -55 -21 -107 c-12 -60 -24 -108 -27 -108 -3 0 -21 22 -40 47 -64 85
-244 260 -320 310 -322 214 -615 247 -959 108 -102 -42 -149 -70 -312 -185
-349 -249 -417 -289 -587 -344 -146 -47 -221 -58 -392 -59 -210 -1 -341 27
-519 109 -106 49 -329 193 -358 231 -18 23 -32 66 -49 150 -38 188 -34 196 61
107 288 -270 670 -415 986 -375 111 14 283 68 400 126 90 44 264 157 405 263
209 157 420 253 619 282 109 16 278 4 407 -29z m-27 -375 c258 -88 442 -243
555 -466 32 -64 32 -64 15 -97 -10 -18 -20 -31 -23 -28 -3 2 1 12 8 20 11 13
10 18 -8 31 -12 8 -22 25 -22 38 0 12 -12 33 -26 47 -15 14 -23 31 -20 42 3
14 0 16 -15 12 -15 -5 -19 -1 -20 17 0 22 -1 22 -9 3 -8 -19 -9 -19 -9 3 -1
19 -6 22 -41 22 -29 0 -42 5 -50 20 -13 25 -40 26 -41 3 -1 -17 -2 -17 -6 -1
-5 21 -43 34 -52 19 -5 -7 -20 -9 -39 -5 -28 6 -32 10 -32 40 0 41 -17 53 -36
25 -16 -23 -40 -28 -46 -10 -3 9 -9 9 -25 0 -12 -6 -34 -11 -50 -11 -22 0 -25
-2 -13 -10 12 -8 11 -10 -6 -10 -11 0 -29 -9 -41 -19 -20 -19 -20 -19 -22 26
-1 50 -34 102 -63 102 -10 1 -18 6 -18 11 0 12 -77 90 -88 90 -5 0 -17 -7 -28
-15 -18 -14 -18 -14 7 -15 14 0 38 -11 53 -25 l26 -24 -2 -353 c-1 -194 2
-394 6 -445 8 -90 8 -92 -17 -117 -28 -28 -42 -27 -89 6 l-26 18 -5 403 c-2
250 -8 413 -15 432 -8 25 -10 26 -11 8 -1 -20 -3 -21 -29 -8 -22 12 -36 12
-67 3 -45 -14 -57 -25 -51 -51 2 -9 0 -15 -4 -12 -5 3 -11 1 -14 -4 -3 -5 5
-12 18 -15 14 -3 34 -19 46 -36 20 -28 21 -36 18 -439 -3 -397 -4 -411 -23
-425 -30 -23 -58 -19 -86 10 l-24 26 -3 394 c-2 248 -6 392 -12 389 -6 -4 -10
-21 -10 -40 0 -19 -4 -36 -9 -39 -12 -8 -34 21 -28 37 10 26 -8 40 -33 27 -12
-7 -36 -10 -52 -8 -19 3 -32 0 -35 -8 -2 -7 -18 -16 -34 -19 -41 -9 -44 -22
-4 -17 26 3 40 -2 58 -20 22 -23 24 -32 30 -192 11 -276 9 -520 -5 -534 -19
-19 -73 -14 -94 9 -19 21 -25 107 -35 479 -2 55 -4 75 -6 48 -2 -27 -7 -48
-12 -48 -4 0 -22 15 -40 34 -21 22 -28 35 -20 38 9 3 6 10 -8 24 -34 30 -52
44 -58 44 -13 0 -54 -56 -50 -67 2 -7 -1 -12 -7 -10 -6 1 -13 -4 -15 -11 -3
-7 1 -13 8 -11 32 4 51 -2 74 -26 24 -24 25 -28 25 -181 0 -148 -1 -159 -22
-181 -23 -25 -48 -29 -79 -13 -17 10 -19 7 -19 -20 0 -27 -3 -30 -30 -30 -23
0 -30 4 -30 20 0 11 -4 20 -9 20 -5 0 -13 10 -17 22 -4 15 -1 26 12 35 16 12
17 15 4 23 -17 10 -14 15 18 24 17 6 22 3 23 -11 0 -16 1 -16 9 2 5 11 8 52 8
90 -1 39 -3 53 -5 33 -2 -21 -7 -38 -10 -38 -11 0 -43 33 -43 44 0 22 -65 56
-106 56 -32 0 -40 -4 -41 -19 -1 -13 7 -20 27 -24 39 -8 79 -46 86 -84 5 -25
1 -37 -19 -57 -32 -32 -75 -34 -113 -4 -23 18 -27 19 -21 5 5 -13 1 -17 -19
-17 -15 0 -27 7 -30 18 -30 95 -61 121 -123 101 -46 -15 -61 -27 -54 -45 3 -8
0 -14 -6 -14 -7 0 -9 -10 -5 -26 4 -15 7 -34 8 -43 2 -30 21 -47 61 -56 29 -8
41 -16 46 -35 4 -14 7 -19 8 -12 1 18 21 15 39 -7 10 -11 31 -21 47 -23 25 -2
31 1 33 20 4 29 22 29 22 -1 0 -20 4 -22 40 -19 38 4 40 2 46 -27 6 -28 10
-31 45 -31 31 0 39 -4 39 -19 0 -15 11 -20 63 -27 37 -5 52 -9 36 -11 -26 -4
-26 -5 -17 -48 9 -42 8 -46 -19 -70 -31 -27 -53 -32 -54 -12 0 10 -2 10 -6 0
-2 -7 -11 -13 -18 -13 -7 0 -16 -11 -19 -25 -4 -14 -10 -23 -15 -20 -5 2 -5
-11 -1 -30 6 -27 5 -35 -6 -35 -21 0 -39 -41 -23 -51 21 -13 -12 -11 -126 6
-100 15 -366 82 -375 95 -3 3 -36 19 -75 34 -73 29 -258 128 -335 179 -123 83
-337 301 -440 449 -92 133 -205 367 -185 386 11 11 84 -13 163 -55 389 -205
775 -227 1177 -65 77 30 270 149 396 244 164 122 260 184 358 233 157 77 242
96 416 91 96 -3 124 -8 220 -40z m155 -277 c0 -5 -4 -9 -10 -9 -5 0 -10 7 -10
16 0 8 5 12 10 9 6 -3 10 -10 10 -16z m-106 -62 l23 -23 -5 -260 c-4 -214 -7
-262 -20 -276 -21 -24 -56 -22 -87 5 l-26 22 -2 256 c-2 240 -1 258 17 278 25
28 71 27 100 -2z m276 -37 c0 -5 -4 -10 -10 -10 -5 0 -10 5 -10 10 0 6 5 10
10 10 6 0 10 -4 10 -10z m-40 -195 c37 -19 54 -71 45 -133 -9 -61 -19 -78 -57
-98 -58 -30 -98 10 -98 99 0 77 32 147 67 147 8 0 27 -7 43 -15z m-1589 -486
c-9 -22 -10 -22 -10 -3 -1 11 2 24 6 27 12 12 14 0 4 -24z m1473 -13 l26 -13
-26 -26 c-15 -15 -31 -24 -37 -20 -5 3 -7 2 -4 -4 9 -15 -48 -65 -78 -68 -28
-4 -55 -22 -55 -38 0 -5 10 -2 23 9 l22 19 -18 -22 c-11 -12 -25 -19 -32 -17
-10 4 -8 14 10 41 13 19 27 42 30 52 5 18 30 21 53 7 9 -5 10 -1 2 19 -13 34
-13 35 5 29 8 -4 15 -1 15 5 0 13 21 40 31 41 4 0 18 -6 33 -14z m-190 -198
c-3 -4 -11 -5 -19 -1 -21 7 -19 12 4 10 11 0 18 -5 15 -9z m-1026 -140 c9 -9
12 -9 12 0 0 7 12 12 28 12 l27 0 -30 -19 c-16 -11 -46 -21 -65 -24 -19 -2
-27 -2 -17 0 9 2 17 13 17 24 0 22 11 24 28 7z"/>
<path d="M4565 7628 c-66 -16 -188 -47 -272 -69 -84 -21 -160 -39 -170 -39
-17 0 -18 -16 -18 -230 l1 -230 -34 0 c-22 0 -41 -8 -59 -26 -22 -22 -25 -32
-20 -70 8 -74 63 -111 137 -91 82 21 116 98 104 232 -8 85 -4 89 76 91 40 0
75 10 133 37 42 20 77 40 77 46 0 26 -174 23 -277 -5 -18 -5 -23 0 -32 33 -6
21 -11 43 -11 49 0 16 150 62 307 94 l132 27 3 -148 c2 -82 1 -149 -2 -149 -3
1 -25 5 -50 9 -80 16 -148 -28 -164 -106 -13 -58 41 -126 110 -139 48 -9 73 0
122 42 75 64 75 63 76 387 l1 287 -25 -1 c-14 -1 -79 -15 -145 -31z"/>
<path d="M6684 5655 c12 -52 18 -64 33 -70 15 -5 15 -4 0 13 -9 10 -17 25 -17
33 0 8 -5 21 -11 29 -8 12 -9 11 -5 -5z"/>
<path d="M5352 5500 c0 -14 2 -19 5 -12 2 6 2 18 0 25 -3 6 -5 1 -5 -13z"/>
<path d="M6320 4950 c0 -5 5 -10 10 -10 6 0 10 5 10 10 0 6 -4 10 -10 10 -5 0
-10 -4 -10 -10z"/>
<path d="M3439 4833 c6 -12 16 -25 21 -28 17 -11 11 5 -11 28 l-21 22 11 -22z"/>
<path d="M3528 4743 c12 -22 30 -38 37 -31 2 2 -8 14 -22 28 -24 23 -25 23
-15 3z"/>
<path d="M4692 2651 c-97 -34 -154 -111 -153 -211 0 -75 24 -133 74 -175 84
-72 198 -78 285 -16 112 82 118 285 12 374 -57 49 -131 58 -218 28z"/>
<path d="M7483 3093 c-7 -2 -13 -20 -13 -40 0 -30 3 -34 21 -31 30 4 47 33 33
55 -12 19 -23 24 -41 16z"/>
<path d="M1738 2691 c-74 -19 -110 -45 -106 -74 6 -39 30 -42 131 -19 159 37
302 28 475 -29 76 -25 95 -29 108 -18 26 22 37 49 24 64 -16 19 -132 62 -215
80 -100 21 -330 19 -417 -4z"/>
<path d="M1810 2530 c-61 -8 -128 -27 -147 -43 -18 -13 -16 -52 2 -67 15 -13
24 -12 115 15 65 19 211 22 296 5 33 -6 94 -23 137 -38 86 -29 112 -24 112 19
0 46 -98 80 -305 104 -69 8 -132 14 -140 14 -8 -1 -40 -5 -70 -9z"/>
<path d="M1812 2359 c-24 -4 -60 -16 -80 -26 -30 -14 -38 -24 -40 -51 -4 -41
16 -50 72 -33 160 47 341 30 438 -41 23 -17 48 7 51 48 2 26 -4 32 -53 56 -94
46 -281 68 -388 47z"/>
</g>
</svg>
