<?xml version="1.0" standalone="no"?>
<!DOCTYPE svg PUBLIC "-//W3C//DTD SVG 20010904//EN"
 "http://www.w3.org/TR/2001/REC-SVG-20010904/DTD/svg10.dtd">
<svg version="1.0" xmlns="http://www.w3.org/2000/svg"
 width="500.000000pt" height="500.000000pt" viewBox="0 0 500.000000 500.000000"
 preserveAspectRatio="xMidYMid meet">

<g transform="translate(0.000000,500.000000) scale(0.100000,-0.100000)"
fill="#000000" stroke="none">
<path d="M2281 3985 c-144 -37 -135 -43 38 -24 93 10 313 3 510 -17 80 -8 46
11 -76 42 -134 34 -335 33 -472 -1z"/>
<path d="M3099 3803 c61 -85 151 -159 151 -125 0 12 -150 152 -163 152 -4 0 1
-12 12 -27z"/>
<path d="M3346 3780 c68 -79 171 -272 208 -385 68 -214 67 -455 -5 -667 -147
-438 -570 -748 -1020 -748 -213 0 -453 70 -616 180 -24 17 -49 27 -55 24 -6
-4 -8 -2 -5 3 8 13 -59 66 -76 60 -7 -3 -4 -6 6 -6 20 -1 21 -5 6 -34 -9 -20
-9 -21 4 -4 11 13 17 15 22 6 7 -10 -10 -28 -27 -29 -4 0 -23 16 -44 35 -39
37 -94 69 -94 55 0 -5 28 -33 63 -63 179 -155 341 -238 567 -289 84 -18 133
-23 250 -23 204 1 338 33 524 128 334 170 566 488 630 865 20 115 20 209 1
332 -22 147 -41 205 -105 335 -57 115 -169 277 -157 227 4 -19 3 -21 -9 -11
-9 7 -14 8 -14 1 0 -6 -8 -9 -17 -7 -10 1 -16 9 -15 16 2 8 0 11 -4 7 -4 -4
-14 -2 -23 4 -9 7 -7 1 5 -12z"/>
<path d="M2098 3693 l-98 -25 0 -107 c0 -101 -1 -107 -22 -116 -45 -19 -27
-95 22 -95 40 0 63 34 68 99 4 54 7 61 25 61 30 0 107 31 107 42 0 6 -28 9
-70 6 -38 -2 -70 0 -70 3 0 4 -2 14 -5 22 -6 13 53 37 125 51 78 15 86 18 65
26 -11 4 -41 5 -67 2 -32 -3 -48 -1 -48 7 0 6 6 11 13 11 6 0 26 9 42 20 37
24 34 24 -87 -7z"/>
<path d="M3133 3694 c18 -21 18 -22 -3 -37 -19 -13 -19 -16 -5 -30 19 -20 19
-37 -1 -37 -15 0 -44 -23 -44 -35 0 -4 6 -5 12 -3 7 3 19 -2 26 -9 8 -8 23
-11 36 -8 13 4 17 3 8 -2 -8 -7 3 -16 36 -30 74 -33 112 -69 112 -107 0 -22 8
-40 26 -57 33 -31 50 -64 58 -116 7 -49 2 -52 -31 -21 -20 18 -23 19 -23 5 0
-11 -8 -17 -21 -17 -19 0 -17 -5 18 -43 60 -65 71 -87 66 -129 -6 -46 -16 -47
-50 -8 -29 35 -49 40 -32 8 10 -19 9 -20 -7 -13 -57 23 -56 15 4 -50 l63 -69
-7 -51 c-3 -27 -8 -54 -11 -58 -3 -4 -23 12 -45 35 -21 24 -37 37 -33 31 10
-21 -13 -52 -35 -48 -21 4 -21 4 0 -22 31 -39 8 -54 -27 -18 -15 16 -22 25
-14 20 9 -5 12 -4 8 2 -10 15 -72 23 -106 13 -25 -7 -29 -6 -23 8 5 14 3 15
-9 5 -10 -8 -19 -9 -29 -1 -12 8 -12 9 3 4 22 -7 23 10 0 18 -29 12 -41 -13
-15 -32 22 -17 23 -22 20 -152 -3 -120 -5 -135 -21 -138 -40 -8 -47 13 -47
154 0 83 4 134 10 134 6 0 10 8 9 18 0 10 -3 12 -6 5 -2 -7 -9 -13 -14 -13 -4
0 -6 7 -3 15 4 9 -4 25 -18 38 -13 13 -23 29 -20 37 3 12 2 13 -6 1 -7 -9 -12
-10 -16 -2 -4 6 -15 11 -24 11 -12 0 -9 -4 8 -13 l25 -13 0 -229 c0 -213 -1
-230 -18 -233 -42 -8 -47 11 -47 197 0 178 -5 225 -21 215 -5 -3 -9 1 -9 9 0
18 -34 12 -51 -9 -9 -11 -7 -18 10 -31 21 -18 22 -24 19 -222 -3 -184 -5 -205
-21 -215 -15 -9 -21 -7 -33 8 -11 15 -14 56 -14 180 0 140 -3 165 -19 189 -22
35 -24 35 -43 19 -9 -7 -23 -10 -32 -6 -25 10 -19 -10 7 -21 21 -10 22 -14 25
-186 2 -146 0 -178 -12 -182 -40 -15 -53 32 -56 198 -1 44 -4 74 -7 68 -2 -7
-9 -13 -15 -13 -6 0 -7 7 -4 16 3 8 2 12 -4 9 -6 -3 -10 1 -10 10 0 12 -6 15
-21 10 -14 -5 -25 -2 -30 6 -6 9 -9 10 -9 2 0 -6 11 -25 25 -41 22 -26 25 -39
25 -105 0 -81 -11 -101 -51 -95 -13 2 -24 -3 -26 -12 -4 -13 -3 -13 6 0 10 13
11 13 11 0 0 -14 -19 -50 -21 -40 0 3 -2 14 -4 24 -2 11 1 28 7 39 7 13 7 17
0 13 -6 -3 -13 -2 -17 4 -3 6 1 13 9 16 10 4 16 18 16 38 0 24 -3 27 -10 16
-8 -12 -10 -10 -10 8 0 13 -4 21 -9 18 -4 -3 -21 -2 -37 3 -30 8 -54 5 -54 -8
0 -5 11 -6 25 -3 33 6 55 -14 55 -49 0 -33 -28 -46 -61 -28 -19 9 -21 9 -16
-4 4 -10 0 -14 -11 -12 -10 1 -16 10 -15 22 1 11 -7 29 -17 38 -17 15 -24 16
-46 7 -21 -10 -25 -18 -22 -44 2 -26 11 -35 48 -54 30 -15 50 -20 61 -14 12 7
22 4 34 -10 10 -11 21 -17 25 -15 5 3 10 2 12 -2 1 -5 24 -19 51 -32 50 -26
60 -41 26 -41 -15 0 -19 -5 -15 -15 4 -10 -1 -15 -17 -16 -21 -1 -21 -1 3 -9
18 -6 20 -8 7 -9 -10 -1 -35 -15 -56 -32 -27 -21 -45 -29 -62 -25 -13 3 -37 7
-54 10 -77 12 -107 22 -210 70 -124 59 -215 130 -302 235 -55 67 -137 216
-128 232 6 9 32 1 102 -34 163 -82 362 -93 521 -30 72 29 155 74 187 102 86
76 246 165 322 179 62 11 171 -1 215 -25 18 -9 38 -16 45 -15 6 1 14 -2 18 -8
3 -5 11 -10 17 -10 6 0 4 8 -5 18 -10 10 -14 21 -11 25 9 9 44 -7 108 -48 65
-41 72 -37 19 11 -78 70 -235 134 -330 134 -47 0 -171 -34 -225 -61 -23 -12
-64 -37 -92 -57 -263 -188 -311 -207 -506 -207 -127 0 -139 2 -210 31 -41 17
-107 51 -146 77 -58 38 -72 52 -81 84 -16 55 -26 123 -18 123 4 0 35 -25 68
-55 100 -89 213 -140 341 -155 88 -10 164 1 252 36 75 30 240 134 211 134 -39
0 -9 36 69 85 17 11 43 28 57 38 15 10 34 17 44 15 15 -3 13 -7 -12 -31 l-30
-29 42 21 c22 11 58 27 80 35 21 7 71 26 112 41 62 23 84 27 140 22 36 -2 75
-8 86 -11 11 -3 4 1 -15 10 -50 23 -145 36 -209 29 -124 -15 -212 -55 -374
-171 -175 -127 -331 -178 -471 -155 -139 23 -274 94 -356 188 -25 29 -30 42
-30 88 0 30 3 55 7 55 3 0 36 -26 72 -59 168 -148 361 -199 526 -136 105 39
135 56 135 75 0 16 40 57 119 123 18 15 31 30 29 33 -3 2 -30 -15 -59 -39
-195 -157 -415 -190 -610 -92 -68 35 -168 122 -184 162 -12 29 -13 43 -3 74 6
22 12 39 12 39 1 0 35 -33 76 -72 185 -179 383 -201 605 -67 30 18 55 37 55
42 0 5 -16 -1 -36 -12 -37 -22 -59 -19 -50 6 4 10 2 13 -6 10 -98 -43 -150
-59 -208 -64 -153 -13 -304 65 -356 184 l-24 53 31 58 c16 31 37 60 45 65 15
9 19 64 5 86 -7 10 -22 -4 -60 -55 -63 -85 -125 -210 -159 -323 -24 -77 -26
-102 -27 -246 0 -182 15 -254 84 -401 72 -153 156 -259 284 -355 135 -102 288
-165 480 -195 117 -19 220 -10 362 31 302 88 547 325 645 626 57 172 64 368
20 534 -23 88 -104 263 -144 310 l-25 30 16 -50 c9 -27 22 -65 30 -84 10 -23
11 -37 4 -44 -7 -7 -14 -1 -21 17 -5 15 -10 32 -10 38 0 15 -80 100 -80 85 -1
-6 -7 2 -14 18 -8 17 -29 44 -47 60 -19 17 -26 20 -16 9z m27 -28 c0 -2 -8
-10 -17 -17 -16 -13 -17 -12 -4 4 13 16 21 21 21 13z m-440 -526 c-8 -5 -19
-10 -25 -10 -5 0 -3 5 5 10 8 5 20 10 25 10 6 0 3 -5 -5 -10z m-665 -100 c18
-1 18 -2 3 -11 -20 -11 -68 -2 -68 13 0 6 10 8 23 4 12 -3 31 -6 42 -6z m1245
-341 c0 -6 -4 -7 -10 -4 -5 3 -10 11 -10 16 0 6 5 7 10 4 6 -3 10 -11 10 -16z
m-112 -73 c5 -38 -23 -78 -51 -74 -18 3 -22 10 -25 49 -4 60 18 88 52 66 11
-8 22 -26 24 -41z m-91 -212 c2 -6 -8 -21 -22 -34 -14 -13 -25 -20 -25 -16 0
5 -8 2 -17 -5 -15 -12 -16 -12 -8 1 4 8 15 23 23 32 7 9 11 21 8 26 -3 5 5 8
16 7 12 -1 23 -6 25 -11z"/>
<path d="M3076 2403 c-6 -14 -5 -15 5 -6 7 7 10 15 7 18 -3 3 -9 -2 -12 -12z"/>
<path d="M2266 3555 l6 -45 -39 0 c-66 0 -96 -57 -53 -100 29 -29 66 -25 101
9 25 25 29 37 29 83 0 32 -6 62 -16 76 -25 36 -36 27 -28 -23z"/>
<path d="M3134 3156 c11 -9 24 -16 30 -16 12 0 7 5 -24 19 -24 11 -24 11 -6
-3z"/>
<path d="M3056 2841 c-8 -12 23 -23 45 -16 11 4 19 11 19 18 0 8 -3 8 -12 -1
-15 -15 -32 -16 -23 -2 3 6 -1 10 -9 10 -8 0 -17 -4 -20 -9z"/>
<path d="M3646 1495 c-4 -12 -1 -16 11 -13 18 3 21 20 5 26 -5 1 -12 -4 -16
-13z"/>
</g>
</svg>
